<svg xmlns="http://www.w3.org/2000/svg" xmlns:xlink="http://www.w3.org/1999/xlink" viewBox="0 0 302.25 338.69"><defs><style>.cls-1{fill:none;}.cls-2{clip-path:url(#clip-path);}.cls-15,.cls-3{fill:#294093;}.cls-4{fill:#010101;}.cls-5,.cls-7{fill:#fff;}.cls-5{stroke:#010101;stroke-miterlimit:10;stroke-width:5px;}.cls-6{fill:#1d1d1b;}.cls-15,.cls-7{font-size:58.64px;font-family:BlowBrush;}.cls-7{stroke:#fff;stroke-linecap:round;stroke-linejoin:round;stroke-width:20px;}.cls-8{letter-spacing:-0.02em;}.cls-9{letter-spacing:-0.02em;}.cls-10{letter-spacing:-0.01em;}.cls-11{letter-spacing:0.02em;}.cls-12{letter-spacing:0.02em;}.cls-13{letter-spacing:0.02em;}.cls-14{letter-spacing:0.03em;}</style><clipPath id="clip-path"><circle class="cls-1" cx="151.12" cy="149.08" r="107.89"/></clipPath></defs><g id="Capa_2" data-name="Capa 2"><g id="Capa_1-2" data-name="Capa 1"><g class="cls-2"><path class="cls-3" d="M258,174.4a.56.56,0,0,0,0-.13s0,0,0,0a1.09,1.09,0,0,0-.09-.23.75.75,0,0,0-.06-.13,1.85,1.85,0,0,0-.14-.14l-.14-.13,0,0-9-5.42a1,1,0,0,0-.6-.14l-10.2.9V153.56h9.83a1,1,0,1,0,0-2h-9.83v-4.65a1,1,0,0,0-.28-.69l-10.29-10.83,0,0a1,1,0,0,0-.24-.17l-.09,0a.72.72,0,0,0-.29-.06H186v-21l9.56-14.77,14.36,15.94v13a1,1,0,0,0,2,0V115.92h20.4l1,20.85a1,1,0,0,0,1,1h0a1,1,0,0,0,1-1l-1-20.76h3.2a1,1,0,0,0,.88-.53,1,1,0,0,0-.06-1L222.81,92.1a1,1,0,0,0-.86-.43l-30.16,1-.09,0-.1,0a.88.88,0,0,0-.27.1l-.05,0a1,1,0,0,0-.25.24s0,0,0,0l-13.69,20.07a1,1,0,0,0-.06,1,1,1,0,0,0,.88.53H184v20.29h-6.68a1,1,0,0,0-1,1v19.59L170,162.49a1,1,0,0,0-.17.27.24.24,0,0,0,0,.08.88.88,0,0,0-.06.27s0,0,0,.06v30.22a1,1,0,0,0,2,0V164.17h31.06a1,1,0,0,0,.75-.34l3.66-4.22v20.62h-8.66a1,1,0,0,0-.53.15l-11.56,7.23a.79.79,0,0,0-.15.12l0,0a1,1,0,0,0-.19.27l0,.08a1,1,0,0,0-.07.34v13a1,1,0,0,0,2,0v-12h23.77l.42,12.06a1,1,0,0,0,1,1h0a1,1,0,0,0,1-1l-.43-12.5,7.46-5.69v18.23a1,1,0,1,0,2,0V172.89l12.45,6v22.57a1,1,0,0,0,2,0V179.11l19.5-3.67h0a.78.78,0,0,0,.21-.09l.15-.06c.05,0,.08-.09.13-.13l.14-.15,0,0a.88.88,0,0,0,.05-.15,1.34,1.34,0,0,0,.07-.18A1.92,1.92,0,0,0,258,174.4Zm-39.65-60.62L202.22,94.36l1.64-.06s0,0,0,0l4.2,5.24a1,1,0,0,0,.78.37,1,1,0,0,0,.78-1.62l-3.3-4.11,2.21-.08a.87.87,0,0,0,.1.19l15.09,19.59h-2.61l0-.09-5.61-7.65a1,1,0,1,0-1.61,1.18l4.81,6.56h-.26S218.37,113.83,218.34,113.78ZM212.53,94l5.36,8.12a1,1,0,1,0,1.67-1.1l-4.69-7.1h.39s0,.07.05.1l14.3,19.91h-3.34L211,94.06Zm5.11-.18h.11a1.1,1.1,0,0,0,0,.18Zm17.94,20.1h-3.53l0-.08L218.53,95.06l3.68,4.53a1,1,0,1,0,1.55-1.27L220,93.74l1.45,0ZM196.19,94.57l4,5a1,1,0,0,0,.79.37,1,1,0,0,0,.77-1.62l-3.09-3.85,1,0,16.16,19.47h-1.14a1,1,0,0,0-.23-.79l-3.84-4.37a1,1,0,0,0-1.5,1.33l3.38,3.83h-1.13L194,94.64Zm-4.25.76,2.2,2.45-9.72,15H180Zm14.21,41.75-5,6.21a1,1,0,0,0,.78,1.62,1,1,0,0,0,.78-.37l6-7.46h2.5l-18.67,25.09H188l6.82-9a1,1,0,0,0-1.59-1.21l-7.73,10.22H181l20.07-25.09Zm-27.86,0h15l-15,16.41Zm-1.21,20.68a.72.72,0,0,0,.21.05,1,1,0,0,0,1-1v-.36L196,137.08h2.45l-20.08,25.09H173Zm25.29,4.41H195l18.67-25.09h2.54l-4.31,6.1a1,1,0,0,0,.24,1.39,1,1,0,0,0,.58.18,1,1,0,0,0,.82-.42l5.12-7.25h1.19l-3.48,4.2a1,1,0,0,0,.13,1.4,1,1,0,0,0,.64.23,1,1,0,0,0,.77-.36l4.54-5.47h1.71Zm6.87-4.85,17.19-19.76,9.26,9.75V169a.19.19,0,0,0,0,.07l-13.55,1.19s-.09,0-.13,0l-.17,0a1.08,1.08,0,0,0-.18.11l-.13.1a.86.86,0,0,0-.14.18.71.71,0,0,0-.07.09,0,0,0,0,1,0,0,.86.86,0,0,0-.05.23.8.8,0,0,0,0,.15s0,0,0,0v8.93h-12Zm-10.37,24.91h20.41l-6.86,5.22H190.51Zm38-5L226,172l21.79-1.92,6.5,3.9Z"/><path class="cls-3" d="M222.74,166.74a1,1,0,0,0,.5.14,1,1,0,0,0,.49-.13l8.3-4.66a1,1,0,0,0,.51-.87v-11.6a1,1,0,0,0-.46-.84,1,1,0,0,0-1-.06l-8.3,3.93a1,1,0,0,0-.57.91v12.32A1,1,0,0,0,222.74,166.74Zm7.8-6.11-2.1,1.18V152.2l2.1-1Z"/><path class="cls-3" d="M220.15,154.2a1,1,0,0,0-1-.06l-8.3,3.93a1,1,0,0,0-.57.91V171.3a1,1,0,0,0,.49.86,1,1,0,0,0,.51.14,1.05,1.05,0,0,0,.49-.13l8.3-4.66a1,1,0,0,0,.51-.87V155A1,1,0,0,0,220.15,154.2Zm-1.53,11.85-2.1,1.18v-9.61l2.1-1Z"/><path class="cls-3" d="M200.34,178.29V167a1,1,0,0,0-1-1H184.16a1,1,0,0,0-1,1v11.25a1,1,0,0,0,1,1h15.18A1,1,0,0,0,200.34,178.29ZM185.16,168h2.31v9.25h-2.31Z"/><path class="cls-3" d="M250.19,179.07l-9.25,1.17a1,1,0,0,0-.87,1V196a1,1,0,0,0,.33.74,1,1,0,0,0,.67.26h.1l9.25-1a1,1,0,0,0,.9-1V180.06a1,1,0,0,0-.34-.75A1,1,0,0,0,250.19,179.07Zm-.87,15-1.8.19V181.42l1.8-.22Z"/><path class="cls-3" d="M233.09,180.31l-6.85-2.95a1,1,0,0,0-1,.08,1,1,0,0,0-.45.84v15.11a1,1,0,0,0,.54.89l6.85,3.57a.93.93,0,0,0,.46.12,1,1,0,0,0,1-1V181.23A1,1,0,0,0,233.09,180.31Zm-1.4,15-1.27-.67V181.34l1.27.55Z"/><path class="cls-3" d="M198.86,128.05h7.87a1,1,0,0,0,1-1v-8.9a1,1,0,0,0-1-1h-7.87a1,1,0,0,0-1,1v8.9A1,1,0,0,0,198.86,128.05Zm1-8.9H201v6.9h-1.13Z"/><path class="cls-3" d="M216.13,118.37a1,1,0,0,0-1,1v8.9a1,1,0,0,0,1,1H230a1,1,0,0,0,1-1v-8.9a1,1,0,0,0-1-1Zm12.83,8.9h-2.14v-6.9H229Z"/><path class="cls-3" d="M199.86,113.53V109.3a3.53,3.53,0,0,0-3.53-3.53h-2a3.53,3.53,0,0,0-3.53,3.53v4.23a3.54,3.54,0,0,0,3.53,3.53h2A3.54,3.54,0,0,0,199.86,113.53Zm-7,0V109.3a1.54,1.54,0,0,1,1.53-1.53h.35v7.29h-.35A1.54,1.54,0,0,1,192.83,113.53Z"/><path class="cls-3" d="M188.28,118.37a1,1,0,0,0-1,1v8.9a1,1,0,0,0,1,1h5.93a1,1,0,0,0,1-1v-8.9a1,1,0,0,0-1-1Zm1,2h1.59v6.9h-1.59Z"/><path class="cls-3" d="M100.79,129.52a6.36,6.36,0,0,0-4.17.47,1.58,1.58,0,0,0-.75,1.33c0,9.67.54,10.14.9,10.45a1.13,1.13,0,0,0,.73.27h.12c2.06-.3,4.5-.93,4.5-2.31,0-.33-.07-2.66-.18-4.85C101.68,130.08,101.47,129.79,100.79,129.52ZM99.32,139.6v-8.24l.33,0c.24,1.6.43,6.37.47,8A7.85,7.85,0,0,1,99.32,139.6Z"/><path class="cls-3" d="M69.58,140.34a13,13,0,0,0,3-.2c1.83-.68,1.3-8.12,1.14-8.68a1.14,1.14,0,0,0-1.21-.92c-.17,0-.9-.06-1.53-.12-4.9-.45-6.43-.4-7.12.23a1.23,1.23,0,0,0-.4.89v7.66a1,1,0,0,0,1,1C66.09,140.27,68,140.34,69.58,140.34Zm-4.16-8.19a20.52,20.52,0,0,1,2.94.07v6.1c-.93,0-1.94,0-2.94-.08Z"/><path class="cls-3" d="M114.11,122.64h-7a1,1,0,0,0-1,1V135.7a1,1,0,0,0,1,1h7a1,1,0,0,0,1-1V123.64A1,1,0,0,0,114.11,122.64Zm-1,12.06h-1.69V124.64h1.69Z"/><path class="cls-3" d="M101.29,94H95.72a3.32,3.32,0,0,0-3.31,3.32v4.26a3.32,3.32,0,0,0,3.31,3.32h5.57a3.32,3.32,0,0,0,3.31-3.32V97.31A3.32,3.32,0,0,0,101.29,94Zm-6.88,7.58V97.31A1.31,1.31,0,0,1,95.72,96h.58v6.9h-.58A1.31,1.31,0,0,1,94.41,101.57Z"/><path class="cls-3" d="M110.59,104.89h4.86a1,1,0,0,0,1-1V95a1,1,0,0,0-1-1h-4.86a1,1,0,0,0-1,1v8.9A1,1,0,0,0,110.59,104.89Zm3.86-2h-1.07V96h1.07Z"/><path class="cls-3" d="M68.36,166.63H63.07a1,1,0,0,0-1,1l-.3,6.19a1,1,0,0,0,.28.74,1,1,0,0,0,.72.31h5.9a1,1,0,0,0,.73-.32,1,1,0,0,0,.27-.74l-.32-6.18A1,1,0,0,0,68.36,166.63Zm-4.34,2h1.13v4.19H63.82Z"/><path class="cls-3" d="M86.85,189.65a1,1,0,0,0-1,0L82,192.24a1,1,0,0,0-.45.83v9.45a1,1,0,0,0,.48.86,1.07,1.07,0,0,0,1,0l3.83-2a1,1,0,0,0,.55-.89v-10A1,1,0,0,0,86.85,189.65ZM85.38,200l-1.84.93v-7.28l1.84-1.22Z"/><path class="cls-3" d="M70.23,193l-6.81-1.22a1,1,0,0,0-.83.23,1,1,0,0,0-.35.78l.22,8.2a1,1,0,0,0,.77.94l6.59,1.61.24,0a1,1,0,0,0,.61-.21,1,1,0,0,0,.39-.79V194A1,1,0,0,0,70.23,193Zm-6,1,1.74.31v6.27l-1.57-.38Z"/><path class="cls-3" d="M116.08,187.56a3,3,0,1,0,3,3A3,3,0,0,0,116.08,187.56Z"/><path class="cls-3" d="M123.19,170.73l-22.47,4.45-2.56-6,24.68-4a1,1,0,1,0-.31-2l-2.87.46V153.11a1,1,0,0,0-.34-.76,1,1,0,0,0-.79-.23L98.74,154.8a1,1,0,0,0-.87,1v11.43l-5.2.83a1,1,0,0,0-.78,1.34L94.72,177a.91.91,0,0,0-.4-.1h-1.7l-.91-2.08a1,1,0,0,0-1.3-.52l-2,.83-.47-.74a1,1,0,0,0-1.45-.26l-1,.71-1-2.13a1,1,0,0,0-.77-.56,1,1,0,0,0-.88.33l-.89,1-1.15-1.08a.53.53,0,0,1-.1-.06,1,1,0,0,0-.17-.1.55.55,0,0,0-.18-.06l-.18,0a.59.59,0,0,0-.19,0,.58.58,0,0,0-.18,0l-.19.08-.1,0-.73.55v-1.19a1,1,0,0,0-1.54-.83l-1.41.92v-6.72h.11a1,1,0,0,0,.48-.12L88,158.59l-.13,13.11a1,1,0,0,0,1,1h0a1,1,0,0,0,1-1L90,157.49l.15-.08a1,1,0,0,0,.52-.88V153a.94.94,0,0,0-.17-.54H91l3.26-.63,11-1.16a1,1,0,0,0,.89-1.08l-.23-2.57h13a1,1,0,0,0,1-1V114a1.06,1.06,0,0,0,0-.19l2.45-3.51a1,1,0,0,0,.08-1,1,1,0,0,0-.82-.57l-1.67-.13V90.82a1,1,0,0,0-1-1l-11.19-.27h0l-5.32-.14,1.29-2.23a1,1,0,0,0,0-1l-1.37-2.64L104,81.34l1.17.74-1.12,1.09a1,1,0,0,0,0,1.42,1,1,0,0,0,.71.3,1,1,0,0,0,.7-.29L107,83.17l.8.51-.8.88A1,1,0,0,0,107,86a1,1,0,0,0,.67.26,1,1,0,0,0,.74-.32l1-1.14,1.41.89a1,1,0,0,0,.54.16A1,1,0,0,0,112,84l-1.12-.7,1.89-2.07a1,1,0,1,0-1.48-1.35l-2.12,2.33-.71-.44,2.36-2.31a1,1,0,0,0,0-1.42,1,1,0,0,0-1.41,0l-2.69,2.64-3.91-2.47,1.75-1.76A1,1,0,0,0,103.1,75L101,77.07l-.76-.48.46-.57a1,1,0,1,0-1.57-1.24l-.59.74-.21-.14a1,1,0,0,0-1.38.31,1,1,0,0,0,.31,1.38l0,0-.79,1a1,1,0,0,0,.79,1.62,1,1,0,0,0,.78-.38L99,78.17l.56.35L97.12,81a1,1,0,0,0,0,1.41,1,1,0,0,0,1.41,0l2.79-2.8,1,.64-2,2.6a1,1,0,0,0-.09,1.07l1.41,2.73-1.56,2.7L89.6,89.1a1,1,0,0,0-1,1l-.8,16.14c-2.75-.2-4.62-.32-4.93-.32-1.56,0-5.87,4.22-9.22,7.76a1,1,0,0,0,.92,1.67l3.33-.65V121a23,23,0,0,0-3.58.2c-1.85.49-14.35,3.35-15,3.48a1,1,0,0,0-.29.12.72.72,0,0,0-.22.17.93.93,0,0,0-.27.53.59.59,0,0,0,0,.13v27H44.35a1,1,0,1,0,0,2H59.54a1,1,0,0,0,1-1v-26.9l32.55,2.05V150l-1.27.24c0-2.18.11-6.68,0-9a3.87,3.87,0,0,0-1.3-2.93,3.37,3.37,0,0,0-2.42-.72c-.45,0-3.92,0-5.63,0a3.17,3.17,0,0,0-2.38.93,6.15,6.15,0,0,0-1.43,4v8.31a1,1,0,0,0,.94,1l9.2.52L74.59,160,60,159.48l8.3-3.07v.79a1,1,0,0,0,2,0V150h3.65l.79,7.33a1,1,0,0,0,1,.89h.11a1,1,0,0,0,.88-1.1l-.89-8.22a1,1,0,0,0-1-.89H69.28a1,1,0,0,0-1,1v5.3L54.5,159.37a1.16,1.16,0,0,0-.24.14l-.1.07h0s0,.06-.06.09a1.12,1.12,0,0,0-.16.22.8.8,0,0,0,0,.15,1,1,0,0,0,0,.23v3.8a1,1,0,0,0,1,1H57l.22,18.81a.7.7,0,0,0,0,.14l-1.89,1.24,0,0-.06.06a1.12,1.12,0,0,0-.18.2.41.41,0,0,0,0,.09.88.88,0,0,0-.1.27s0,0,0,.06v0a.92.92,0,0,0,0,.33l4,17.79a1,1,0,0,0,1,.78l.22,0a1,1,0,0,0,.76-1.2l-3.65-16.38,2.77.38v1.22a1,1,0,0,0,1.39.92l1.62-.7L64.08,191a1,1,0,0,0,1.33.37L68.06,190l1.14,1.86a1,1,0,0,0,.86.48l.26,0,2.73-.75,3.52.62.21,12.8a1,1,0,0,0,1,1h0a1,1,0,0,0,1-1l-.21-13.12,11.3-9.06.76,19.81a1,1,0,0,0,1,1h0a1,1,0,0,0,1-1l-.82-21.29,3.13-2.51a1,1,0,0,0,.27-.36l9,24.35a1,1,0,0,0,.94.66.83.83,0,0,0,.34-.07,1,1,0,0,0,.59-1.28L94.19,169.83l1.93-.31,3.08,7.19a1,1,0,0,0,.92.6.68.68,0,0,0,.2,0l5.89-1.16a7.49,7.49,0,0,0,6.5,3.12,11.91,11.91,0,0,0,3.63-.57A6.86,6.86,0,0,0,122,173l1.6-.31a1,1,0,0,0,.79-1.18A1,1,0,0,0,123.19,170.73Zm-28.1-21V128.46l6.84-3.29,2.08,23.6ZM117.87,145H105.69l-1.9-21.45a.9.9,0,0,0-.09-.32,0,0,0,0,0,0,0s0,0,0,0a1,1,0,0,0-.17-.23l-.06-.06a.92.92,0,0,0-.27-.16l0,0h0c-2.93-1.12-15.67-1.68-23.24-1.71v-6.24l2.36,1.82a1,1,0,0,0,1.33-.1l1.71-1.77,2.78,2.63a1,1,0,0,0,1.41,0l2.3-2.38,1.92,3.14a1.42,1.42,0,0,0,.12.13,1.49,1.49,0,0,0,.12.14h0l.09,0,.25.11,0,0a.21.21,0,0,1,.08,0l.13,0,.09,0,.23-.05.17-.07s0,0,.07,0l4.31-2.87,1.47,3.18a1,1,0,0,0,.74.57,1,1,0,0,0,.89-.29l2.3-2.38,1.36,2.84s0,0,0,0a.86.86,0,0,0,.21.26s0,0,.06.07h0a1,1,0,0,0,.35.16s0,0,0,0h.06a.8.8,0,0,0,.15,0,.53.53,0,0,0,.12,0,.8.8,0,0,0,.21,0,.75.75,0,0,0,.2-.1.39.39,0,0,0,.11-.06c1.63-1.37,3.58-2.92,4.53-3.56a27.4,27.4,0,0,1,1.32,3.79,1,1,0,0,0,.79.72h.17a1,1,0,0,0,.82-.42l2.53-3.63ZM91.66,108.48l8.22.62-5.23,6.68-1.84-3a1,1,0,0,0-.74-.47,1,1,0,0,0-.83.3l-2.52,2.6-2-1.91,4.78-4.55A.88.88,0,0,0,91.66,108.48Zm28,2.15-4.76,6.81c-1-3.11-1.74-3.52-2.28-3.52a2.58,2.58,0,0,0-.29,0,1.3,1.3,0,0,0-.23.06l2.83-3.75h0Zm-12.38,6.43L106,114.41a1,1,0,0,0-.74-.56.92.92,0,0,0-.37,0l3.55-4.07,0,0,4.07.32Zm-5.93-2.17-.6-1.3a1,1,0,0,0-1.46-.41l-.08,0,2.72-3.47a1,1,0,0,0,.19-.49l3.89.3Zm16.54-6.41-9.35-.72.16-16.19,9.19.23ZM90.53,91.12l16.15.4-.16,16.09c-5.78-.45-12.08-.93-16.75-1.27Zm-7.68,16.75c.32,0,2.71.16,6.2.42l-4.49,4.27s0,0,0,0h0l-1.78,1.84-2.51-1.94a1.06,1.06,0,0,0-.81-.19l-.23,0a.88.88,0,0,0-.32-.07,1,1,0,0,0-.65.26l-.92.18C79.79,110.25,82.21,108.05,82.85,107.87ZM66.47,125.09c3.54-.82,7.36-1.71,8.35-2,1.7-.44,18,0,24.88.9l-5.81,2.8Zm14.16,17.42a4.25,4.25,0,0,1,.83-2.57,1.27,1.27,0,0,1,1-.35h1.07V150l-2.85-.16Zm8.07,13.43L75.83,163v-1.43l12.87-6.92Zm-32.85,5.4,18,.6v1.14h-18ZM59,165.08H73.83v7.74a1.19,1.19,0,0,0,0,.26l-14.72,9.67Zm13.79,24.48-2.23.61-1.24-2a1,1,0,0,0-1.33-.36l-2.64,1.41-1.1-1.85a1,1,0,0,0-1.26-.41l-1,.44v-.57a1,1,0,0,0-.87-1l-2.41-.33,18.13-11.91v1.34a1,1,0,0,0,.56.9,1,1,0,0,0,1-.1l1.66-1.25,1.29,1.2a1,1,0,0,0,.73.27,1,1,0,0,0,.7-.34l.57-.65.92,1.88a1,1,0,0,0,.66.54,1,1,0,0,0,.84-.18l1-.79.34.53a1,1,0,0,0,1.22.39l1.9-.78.78,1.78a1,1,0,0,0,.52.52L77.29,190.27l-4.11-.73A1,1,0,0,0,72.75,189.56Zm42.33-25.1-12.29,2v-7l12.29-1.68v6.74Zm-15.21-7.8,17.79-2.41v9.52a.82.82,0,0,0,.06.27l-.64.1v-7.56a1,1,0,0,0-1.14-1l-14.28,2a1,1,0,0,0-.87,1v8.22l-.92.15Zm16,20.08a.23.23,0,0,0-.11,0s-4.76,1.56-7.34-1.08l11.43-2.26A4.92,4.92,0,0,1,115.86,176.74Z"/><path class="cls-3" d="M258.31,136.73H237.5a1,1,0,0,0,0,2h20.81a1,1,0,0,0,0-2Z"/><path class="cls-3" d="M258,140.91H241.13a1,1,0,0,0,0,2H258a1,1,0,0,0,0-2Z"/><path class="cls-3" d="M47.59,116.34H68.4a1,1,0,0,0,0-2H47.59a1,1,0,0,0,0,2Z"/><path class="cls-3" d="M47.89,118.53a1,1,0,0,0,0,2H64.77a1,1,0,1,0,0-2Z"/><path class="cls-3" d="M257,157.24h-14.9a1,1,0,0,0,0,2H257a1,1,0,0,0,0-2Z"/></g><path class="cls-4" d="M119.58,72.88l3.49,128.06A12.88,12.88,0,0,0,136,213.82h30.34a12.89,12.89,0,0,0,12.89-12.88l3.48-128.06c0-7.06-8.83-15.56-20.26-20V12.5a3.57,3.57,0,0,0,2.41-3.17V3.56c0-2-1.95-3.56-4.36-3.56H141.8c-2.41,0-4.37,1.59-4.37,3.56V9.33a3.57,3.57,0,0,0,2.42,3.17V53.13C128.52,57.65,119.58,66,119.58,72.88Zm22.58-16c.56-.15,1.11-.31,1.66-.43l.83-.19.42-.08.14,0c.22,0,.5,0,.43-.27l0-.16v-.52l0-1.55,0-3.05c-.11-8-.28-15.4-.5-21.91-.1-3.26-.17-6.33-.14-9.15l.08-4,.07-1.88.08-1.57,0-.4c0-.13.07-.31-.1-.32a3,3,0,0,1-.66-.36,5.66,5.66,0,0,1-1.87-2.11,6.21,6.21,0,0,1-.65-2.4c-.17-1.46.24-3,1.22-3.52a3.7,3.7,0,0,1,2.27-.43,4.37,4.37,0,0,1,.78.13,4.76,4.76,0,0,0-.78,0,3.59,3.59,0,0,0-2.07.61c-.82.59-1,1.8-.73,3.18A4.9,4.9,0,0,0,145.17,10a6.93,6.93,0,0,0,.94.59c.22,0,.2.26.26.44l.15.56.17,3.85.24,4c.2,2.78.5,5.79.84,9,.68,6.48,1.33,13.87,1.85,21.93l.2,3,.11,2.11a52.73,52.73,0,0,1,8.22,2.3l-10.27,2.26-1.18.26-1,.23-.74.21c-.49.12-1,.29-1.46.43-3.88,1.25-7.47,3.25-9.7,6.5s-3.26,7.58-3.71,12.18a120.92,120.92,0,0,0-.32,14.47c.48,14.71,1.35,28.92,1.5,41.82s-.16,24.52-.06,34.23C131.43,190,131,202,131,202l-2.5-31.45c-.79-9.75-1.06-21.36-1.82-34.16s-1.88-26.87-2.36-41.85a111.5,111.5,0,0,1,.45-15.19c.59-5,1.76-10.24,5-14.58a19.66,19.66,0,0,1,5.8-5.18A28.58,28.58,0,0,1,142.16,56.86Z"/><path class="cls-4" d="M160.69,39.11v5A105.32,105.32,0,1,1,143.1,44V39a110.43,110.43,0,1,0,17.59.13Z"/><path class="cls-5" d="M151.12,201.85c-57.64,0-110,3.84-148.62,10.09v52.71c38.63,6.26,91,10.1,148.62,10.1s110-3.84,148.63-10.1V211.94C261.12,205.69,208.77,201.85,151.12,201.85Z"/><path class="cls-6" d="M38.91,248.86a5,5,0,0,0-1.19-3.62,12.53,12.53,0,0,0-4.3-2.38c-3.79-1.32-6.52-2.89-8.19-4.75a9.69,9.69,0,0,1-2.49-6.72,10.72,10.72,0,0,1,3.39-8,14,14,0,0,1,8.6-3.82,11.48,11.48,0,0,1,6.2.95,9.08,9.08,0,0,1,4.2,4,13.24,13.24,0,0,1,1.48,6.36l-7.61.49a6.37,6.37,0,0,0-1.14-4.14A3.56,3.56,0,0,0,34.6,226a4.38,4.38,0,0,0-3.11,1.48,5,5,0,0,0-1.12,3.35,3.81,3.81,0,0,0,1.25,2.81A13.7,13.7,0,0,0,36,236.08q5.53,1.77,8.05,4.75a11.77,11.77,0,0,1,2.52,7.78c0,3.51-1,6.27-3.14,8.24s-4.95,2.94-8.55,2.94a14.7,14.7,0,0,1-6.69-1.53,11.47,11.47,0,0,1-4.72-4.32,12.41,12.41,0,0,1-1.7-6.61l7.66-.26q0,3.35,1.28,4.83a5,5,0,0,0,4.16,1.45C37.58,253.31,38.91,251.82,38.91,248.86Z"/><path class="cls-6" d="M78.33,241.73c0,5.72-1.19,10.18-3.58,13.34a11.8,11.8,0,0,1-10,4.72,12.26,12.26,0,0,1-10-4.51c-2.43-3-3.67-7.14-3.71-12.52,0-2.78,0-4.17,0-6.95,0-5.59,1.19-10,3.59-13.35a13,13,0,0,1,10-5.53,10.92,10.92,0,0,1,10,4.13c2.43,3.07,3.67,7.55,3.71,13.38C78.32,237.36,78.32,238.82,78.33,241.73Zm-7.69-6.85c0-3.8-.5-6.61-1.47-8.4a4.47,4.47,0,0,0-4.53-2.5,5.16,5.16,0,0,0-4.49,2.91c-1,1.82-1.47,4.5-1.5,8.07v7.34q0,5.41,1.5,8a4.87,4.87,0,0,0,4.58,2.51,4.82,4.82,0,0,0,4.44-2.61c1-1.71,1.46-4.37,1.47-8C70.65,239.27,70.64,237.81,70.64,234.88Z"/><path class="cls-6" d="M93.76,215.74q3.64,15.66,7.21,31.33,3.56-16,7.09-31.94c4-.15,6-.21,10-.32q0,22.19,0,44.37h-7.67c0-4.77,0-7.16,0-11.94.28-7.36.41-11.05.68-18.42q-3.74,15.19-7.53,30.37h-5.2q-3.78-14.9-7.62-29.77c.29,7.21.44,10.82.73,18.05,0,4.69,0,7,0,11.73H83.84q0-21.47-.07-42.94C87.77,216,89.77,215.93,93.76,215.74Z"/><path class="cls-6" d="M134.2,214.46q3.6,16.15,7.18,32.31,3.56-16.22,7.13-32.44c4,0,6,0,10,0q0,22.42,0,44.83h-7.67V247l.7-18.7q-3.79,15.42-7.57,30.83h-5.2q-3.78-15.36-7.59-30.71c.28,7.44.43,11.17.71,18.62,0,4.83,0,7.25,0,12.09h-7.65q0-22.26,0-44.53C128.2,214.56,130.2,214.52,134.2,214.46Z"/><path class="cls-6" d="M184.22,240c-4.77-.06-7.15-.08-11.92-.12,0,4.74,0,7.11,0,11.85l14.1.06c0,3,0,4.46,0,7.43H164.64q0-22.4,0-44.79c8.69.09,13,.18,21.72.43,0,3,0,4.48,0,7.46-5.62-.13-8.43-.18-14.06-.26,0,4.22,0,6.33,0,10.55,4.77.05,7.16.08,11.93.16C184.22,235.62,184.22,237.07,184.22,240Z"/><path class="cls-6" d="M198.44,251.82l13.42.11c0,2.9,0,4.36,0,7.26H190.78l.05-44.23c3.07.1,4.6.16,7.66.28Z"/><path class="cls-6" d="M224.26,259.2h-7.65q0-21.57.07-43.13c3.06.16,4.59.25,7.65.43Q224.3,237.86,224.26,259.2Z"/><path class="cls-6" d="M250.27,241.54c-4.76-.17-7.14-.25-11.91-.4,0,4.43,0,6.64,0,11.07l14.1.2c0,2.73,0,4.09,0,6.82l-21.75,0q0-21.15.08-42.3c8.67.57,13,.89,21.68,1.62,0,2.74,0,4.11,0,6.85-5.62-.4-8.42-.58-14-.91,0,3.94,0,5.92,0,9.87,4.77.2,7.15.31,11.91.55C250.28,237.55,250.28,238.88,250.27,241.54Z"/><path class="cls-6" d="M268.31,244.9l-3.8-.14c0,5.8,0,8.69,0,14.49h-7.65l.06-40.33c4.87.43,7.3.65,12.17,1.13a13.48,13.48,0,0,1,8.86,3.91,12.28,12.28,0,0,1,3.13,8.81c0,5-1.83,8.46-5.48,10.34,2.64,6.43,4,9.6,6.62,15.81v.36H274C271.72,253.6,270.58,250.72,268.31,244.9Zm-3.79-6.81,4.34.23a3.8,3.8,0,0,0,3.43-1.38,6.71,6.71,0,0,0,1.15-4.11q0-5.84-4.44-6.2l-4.47-.36C264.53,231,264.53,233.36,264.52,238.09Z"/><text class="cls-7" transform="translate(32.96 313.44)"><tspan class="cls-8">d</tspan><tspan x="34.01" y="0">e </tspan><tspan class="cls-9" x="79.04" y="0">b</tspan><tspan class="cls-10" x="114.17" y="0">a</tspan><tspan class="cls-11" x="141.38" y="0">r</tspan><tspan class="cls-12" x="174.51" y="0">r</tspan><tspan class="cls-13" x="207.75" y="0">i</tspan><tspan class="cls-14" x="221.47" y="0">o</tspan></text><text class="cls-15" transform="translate(32.96 313.44)"><tspan class="cls-8">d</tspan><tspan x="34.01" y="0">e </tspan><tspan class="cls-9" x="79.04" y="0">b</tspan><tspan class="cls-10" x="114.17" y="0">a</tspan><tspan class="cls-11" x="141.38" y="0">r</tspan><tspan class="cls-12" x="174.51" y="0">r</tspan><tspan class="cls-13" x="207.75" y="0">i</tspan><tspan class="cls-14" x="221.47" y="0">o</tspan></text></g></g></svg>