<?xml version="1.0" encoding="utf-8"?>
<!-- Generator: Adobe Illustrator 26.1.0, SVG Export Plug-In . SVG Version: 6.00 Build 0)  -->
<svg version="1.1" id="Capa_1" xmlns="http://www.w3.org/2000/svg" xmlns:xlink="http://www.w3.org/1999/xlink" x="0px" y="0px"
	 viewBox="0 0 302.2 338.7" style="enable-background:new 0 0 302.2 338.7;" xml:space="preserve">
<style type="text/css">
	.st0{fill:#FFFFFF;stroke:#FFFFFF;stroke-width:11;stroke-linecap:round;stroke-linejoin:round;stroke-miterlimit:10;}
	.st1{clip-path:url(#SVGID_00000181791618464433290890000011409373361892511635_);}
	.st2{fill:#294093;}
	.st3{fill:#010101;}
	.st4{fill:#FFFFFF;stroke:#010101;stroke-width:5;stroke-miterlimit:10;}
	.st5{fill:#1D1D1B;}
	.st6{enable-background:new    ;}
	.st7{fill:#FFFFFF;}
	.st8{fill:none;stroke:#FFFFFF;stroke-width:20;stroke-linecap:round;stroke-linejoin:round;}
</style>
<path class="st0" d="M261.2,149.2c-3.9-53.5-45.6-96.4-98.7-101.9V20.5c1.4-0.5,2.3-1.7,2.4-3.2v-5.7c0-2-1.9-3.6-4.4-3.6h-18.7
	c-2.4,0-4.4,1.6-4.4,3.6v5.8c0.1,1.5,1,2.7,2.4,3.2v26.7c-59.1,6-103.2,58.1-98.9,117.8c4.4,60.8,57.3,106.6,118.1,102.2
	S265.6,210,261.2,149.2z"/>
<g id="Capa_2_00000065776763767775939160000010707055884485851069_">
	<g id="Capa_1-2">
		<g>
			<g>
				<defs>
					<circle id="SVGID_1_" cx="151.1" cy="157.1" r="107.9"/>
				</defs>
				<clipPath id="SVGID_00000017503146432021057020000003293506813040564390_">
					<use xlink:href="#SVGID_1_"  style="overflow:visible;"/>
				</clipPath>
				<g style="clip-path:url(#SVGID_00000017503146432021057020000003293506813040564390_);">
					<path class="st2" d="M258,182.4v-0.1l0,0c0-0.1-0.1-0.2-0.1-0.2s0-0.1-0.1-0.1l-0.1-0.1l-0.1-0.1l0,0l-9-5.4
						c-0.2-0.1-0.4-0.2-0.6-0.1l-10.2,0.9v-15.4h9.8c0.6,0,1-0.4,1-1s-0.4-1-1-1h-9.8v-4.6c0-0.3-0.1-0.5-0.3-0.7l-10.3-10.8l0,0
						c-0.1-0.1-0.2-0.1-0.2-0.2h-0.1c-0.1,0-0.2-0.1-0.3-0.1H186v-21l9.6-14.8l14.4,15.9v13c0,0.6,0.4,1,1,1s1-0.4,1-1v-12.4h20.4
						l1,20.9c0,0.6,0.4,1,1,1l0,0c0.6,0,1-0.4,1-1l-1-20.8h3.2c0.4,0,0.7-0.2,0.9-0.5s0.1-0.7-0.1-1l-15.5-22.4
						c-0.2-0.3-0.5-0.4-0.9-0.4l-30.2,1h-0.1h-0.1c-0.1,0-0.2,0.1-0.3,0.1h-0.1c-0.1,0.1-0.2,0.1-0.2,0.2l0,0l-13.7,20.1
						c-0.2,0.3-0.2,0.7-0.1,1c0.2,0.3,0.5,0.5,0.9,0.5h5.8v20.3h-6.7c-0.6,0-1,0.4-1,1v19.6l-6.3,7c-0.1,0.1-0.1,0.2-0.2,0.3v0.1
						c0,0.1-0.1,0.2-0.1,0.3c0,0,0,0,0,0.1v30.2c0,0.6,0.4,1,1,1s1-0.4,1-1v-29.2h31.1c0.3,0,0.6-0.1,0.8-0.3l3.7-4.2v20.6h-8.7
						c-0.2,0-0.4,0.1-0.5,0.1l-11.6,7.2c-0.1,0-0.1,0.1-0.1,0.1l0,0c-0.1,0.1-0.1,0.2-0.2,0.3v0.1c0,0.1-0.1,0.2-0.1,0.3v13
						c0,0.6,0.4,1,1,1s1-0.4,1-1v-12h23.8l0.4,12.1c0,0.6,0.4,1,1,1l0,0c0.6,0,1-0.4,1-1l-0.4-12.5l7.5-5.7v18.2c0,0.6,0.4,1,1,1
						s1-0.4,1-1v-28.6l12.4,6v22.6c0,0.6,0.4,1,1,1s1-0.4,1-1v-22.3l19.5-3.7l0,0c0.1,0,0.1,0,0.2-0.1l0.1-0.1l0.1-0.1l0.1-0.1l0,0
						v-0.1c0-0.1,0.1-0.1,0.1-0.2C258,182.6,258,182.5,258,182.4z M218.4,121.8l-16.1-19.4l1.6-0.1l0,0l4.2,5.2
						c0.2,0.2,0.5,0.4,0.8,0.4c0.6,0,1-0.5,1-1c0-0.2-0.1-0.4-0.2-0.6l-3.3-4.1l2.2-0.1c0,0.1,0.1,0.1,0.1,0.2l15.1,19.6h-2.6v-0.1
						l-5.6-7.7c-0.3-0.5-0.9-0.6-1.4-0.3c-0.5,0.3-0.6,0.9-0.3,1.4c0,0,0,0.1,0.1,0.1l4.8,6.6h-0.3
						C218.4,121.9,218.4,121.8,218.4,121.8L218.4,121.8z M212.5,102l5.4,8.1c0.3,0.5,0.9,0.6,1.4,0.3s0.6-0.9,0.3-1.4l0,0l-4.7-7.1
						h0.4c0,0,0,0.1,0.1,0.1l14.3,19.9h-3.3L211,102.1L212.5,102z M217.6,101.8h0.1c0,0.1,0,0.1,0,0.2L217.6,101.8z M235.6,121.9
						h-3.5v-0.1L218.6,103l3.7,4.5c0.4,0.4,1,0.5,1.4,0.1s0.5-1,0.1-1.4l0,0l-3.8-4.6h1.4L235.6,121.9z M196.2,102.6l4,5
						c0.2,0.2,0.5,0.4,0.8,0.4c0.6,0,1-0.5,1-1c0-0.2-0.1-0.4-0.2-0.6l-3.1-3.8h1l16.2,19.5h-1.1c0-0.3,0-0.6-0.2-0.8l-3.8-4.4
						c-0.4-0.4-1-0.5-1.4-0.1s-0.5,1-0.1,1.4l3.4,3.8h-1.1L194,102.6H196.2z M191.9,103.3l2.2,2.4l-9.7,15H180L191.9,103.3z
						 M206.2,145.1l-5,6.2c-0.3,0.4-0.3,1.1,0.2,1.4c0.2,0.1,0.4,0.2,0.6,0.2c0.3,0,0.6-0.1,0.8-0.4l6-7.5h2.5l-18.7,25.1H188l6.8-9
						c0.3-0.5,0.2-1.1-0.3-1.4c-0.4-0.3-1-0.2-1.3,0.2l-7.7,10.2H181l20.1-25.1L206.2,145.1z M178.3,145.1h15l-15,16.4V145.1z
						 M177.1,165.8c0.1,0,0.1,0,0.2,0.1c0.6,0,1-0.4,1-1v-0.4l17.7-19.4h2.4l-20.1,25.1H173L177.1,165.8z M202.4,170.2H195
						l18.7-25.1h2.5l-4.3,6.1c-0.3,0.5-0.2,1.1,0.2,1.4c0.2,0.1,0.4,0.2,0.6,0.2c0.3,0,0.6-0.2,0.8-0.4l5.1-7.2h1.2l-3.5,4.2
						c-0.3,0.4-0.3,1,0.1,1.4c0.2,0.1,0.4,0.2,0.6,0.2c0.3,0,0.6-0.1,0.8-0.4l4.5-5.5h1.7L202.4,170.2z M209.2,165.3l17.2-19.8
						l9.3,9.8V177c0,0,0,0,0,0.1l-13.6,1.2H222h-0.2c-0.1,0-0.1,0.1-0.2,0.1l-0.1,0.1c-0.1,0.1-0.1,0.1-0.1,0.2c0,0,0,0.1-0.1,0.1
						l0,0c0,0.1,0,0.2-0.1,0.2v0.1l0,0v8.9h-12L209.2,165.3z M198.9,190.2h20.4l-6.9,5.2h-21.9L198.9,190.2z M236.9,185.2L226,180
						l21.8-1.9l6.5,3.9L236.9,185.2z"/>
					<path class="st2" d="M222.7,174.7c0.2,0.1,0.3,0.1,0.5,0.1s0.3,0,0.5-0.1l8.3-4.7c0.3-0.2,0.5-0.5,0.5-0.9v-11.6
						c0-0.3-0.2-0.7-0.5-0.8c-0.3-0.2-0.7-0.2-1-0.1l-8.3,3.9c-0.4,0.2-0.6,0.5-0.6,0.9v12.3C222.2,174.2,222.4,174.6,222.7,174.7z
						 M230.5,168.6l-2.1,1.2v-9.6l2.1-1V168.6z"/>
					<path class="st2" d="M220.1,162.2c-0.3-0.2-0.7-0.2-1-0.1l-8.3,3.9c-0.4,0.2-0.6,0.5-0.6,0.9v12.3c0,0.4,0.2,0.7,0.5,0.9
						c0.2,0.1,0.3,0.1,0.5,0.1s0.3,0,0.5-0.1l8.3-4.7c0.3-0.2,0.5-0.5,0.5-0.9V163C220.6,162.7,220.4,162.4,220.1,162.2z
						 M218.6,174.1l-2.1,1.2v-9.6l2.1-1V174.1z"/>
					<path class="st2" d="M200.3,186.3V175c0-0.6-0.4-1-1-1h-15.2c-0.6,0-1,0.4-1,1v11.2c0,0.6,0.4,1,1,1h15.2
						C199.9,187.3,200.3,186.8,200.3,186.3z M185.2,176h2.3v9.2h-2.3V176z"/>
					<path class="st2" d="M250.2,187.1l-9.2,1.2c-0.5,0.1-0.9,0.5-0.9,1V204c0,0.3,0.1,0.6,0.3,0.7c0.2,0.2,0.4,0.3,0.7,0.3h0.1
						l9.2-1c0.5-0.1,0.9-0.5,0.9-1v-14.9c0-0.3-0.1-0.6-0.3-0.8S250.5,187,250.2,187.1z M249.3,202.1l-1.8,0.2v-12.8l1.8-0.2V202.1z
						"/>
					<path class="st2" d="M233.1,188.3l-6.9-2.9c-0.3-0.2-0.7-0.1-1,0.1c-0.3,0.2-0.5,0.5-0.4,0.8v15.1c0,0.4,0.2,0.7,0.5,0.9
						l6.9,3.6c0.1,0.1,0.3,0.1,0.5,0.1c0.6,0,1-0.4,1-1v-15.7C233.7,188.8,233.4,188.5,233.1,188.3z M231.7,203.3l-1.3-0.7v-13.3
						l1.3,0.6V203.3z"/>
					<path class="st2" d="M198.9,136.1h7.9c0.6,0,1-0.4,1-1v-8.9c0-0.6-0.4-1-1-1h-7.9c-0.6,0-1,0.4-1,1v8.9
						C197.9,135.6,198.3,136.1,198.9,136.1z M199.9,127.2h1.1v6.9h-1.1V127.2z"/>
					<path class="st2" d="M216.1,126.4c-0.6,0-1,0.4-1,1v8.9c0,0.6,0.4,1,1,1H230c0.6,0,1-0.4,1-1v-8.9c0-0.6-0.4-1-1-1H216.1z
						 M229,135.3h-2.1v-6.9h2.2L229,135.3z"/>
					<path class="st2" d="M199.9,121.5v-4.2c0-1.9-1.6-3.5-3.5-3.5h-2c-1.9,0-3.5,1.6-3.5,3.5v4.2c0,1.9,1.6,3.5,3.5,3.5h2
						C198.3,125.1,199.9,123.5,199.9,121.5z M192.9,121.5v-4.2c0-0.8,0.7-1.5,1.5-1.5h0.4v7.3h-0.4
						C193.5,123.1,192.8,122.4,192.9,121.5C192.8,121.5,192.8,121.5,192.9,121.5L192.9,121.5z"/>
					<path class="st2" d="M188.3,126.4c-0.6,0-1,0.4-1,1v8.9c0,0.6,0.4,1,1,1h5.9c0.6,0,1-0.4,1-1v-8.9c0-0.6-0.4-1-1-1H188.3z
						 M189.3,128.4h1.6v6.9h-1.6V128.4z"/>
					<path class="st2" d="M100.8,137.5c-1.4-0.3-2.9-0.2-4.2,0.5c-0.5,0.3-0.7,0.8-0.8,1.3c0,9.7,0.5,10.1,0.9,10.4
						c0.2,0.2,0.5,0.3,0.7,0.3h0.1c2.1-0.3,4.5-0.9,4.5-2.3c0-0.3-0.1-2.7-0.2-4.9C101.7,138.1,101.5,137.8,100.8,137.5z
						 M99.3,147.6v-8.2h0.3c0.2,1.6,0.4,6.4,0.5,8C99.9,147.5,99.6,147.5,99.3,147.6z"/>
					<path class="st2" d="M69.6,148.3c1,0,2,0,3-0.2c1.8-0.7,1.3-8.1,1.1-8.7c-0.1-0.6-0.6-1-1.2-0.9c-0.2,0-0.9-0.1-1.5-0.1
						c-4.9-0.4-6.4-0.4-7.1,0.2c-0.3,0.2-0.4,0.6-0.4,0.9v7.7c0,0.6,0.4,1,1,1l0,0C66.1,148.3,68,148.3,69.6,148.3z M65.4,140.1
						c1,0,2,0,2.9,0.1v6.1c-0.9,0-1.9,0-2.9-0.1V140.1z"/>
					<path class="st2" d="M114.1,130.6h-7c-0.6,0-1,0.4-1,1v12.1c0,0.6,0.4,1,1,1h7c0.6,0,1-0.4,1-1v-12.1
						C115.1,131.1,114.7,130.6,114.1,130.6z M113.1,142.7h-1.7v-10.1h1.7V142.7z"/>
					<path class="st2" d="M101.3,102h-5.6c-1.8,0-3.3,1.5-3.3,3.3v4.3c0,1.8,1.5,3.3,3.3,3.3h5.6c1.8,0,3.3-1.5,3.3-3.3v-4.3
						C104.6,103.5,103.1,102,101.3,102z M94.4,109.6v-4.3c0-0.7,0.6-1.3,1.3-1.3h0.6v6.9h-0.6C95,110.9,94.4,110.3,94.4,109.6
						L94.4,109.6L94.4,109.6z"/>
					<path class="st2" d="M110.6,112.9h4.9c0.6,0,1-0.4,1-1V103c0-0.6-0.4-1-1-1h-4.9c-0.6,0-1,0.4-1,1v8.9
						C109.6,112.4,110,112.9,110.6,112.9z M114.4,110.9h-1.1V104h1.1V110.9z"/>
					<path class="st2" d="M68.4,174.6h-5.3c-0.6,0-1,0.4-1,1l-0.3,6.2c0,0.3,0.1,0.5,0.3,0.7s0.4,0.3,0.7,0.3h5.9
						c0.3,0,0.5-0.1,0.7-0.3s0.3-0.5,0.3-0.7l-0.3-6.2C69.4,175.1,68.9,174.6,68.4,174.6z M64,176.6h1.1v4.2h-1.3L64,176.6z"/>
					<path class="st2" d="M86.8,197.6c-0.3-0.2-0.7-0.2-1,0l-3.8,2.6c-0.3,0.2-0.4,0.5-0.4,0.8v9.4c0,0.4,0.2,0.7,0.5,0.9
						s0.7,0.2,1,0l3.8-2c0.3-0.2,0.5-0.5,0.6-0.9v-10C87.4,198.1,87.2,197.8,86.8,197.6z M85.4,208l-1.8,0.9v-7.3l1.8-1.2V208z"/>
					<path class="st2" d="M70.2,201l-6.8-1.2c-0.3-0.1-0.6,0-0.8,0.2s-0.4,0.5-0.3,0.8l0.2,8.2c0,0.5,0.3,0.8,0.8,0.9l6.6,1.6h0.2
						c0.2,0,0.4-0.1,0.6-0.2c0.2-0.2,0.4-0.5,0.4-0.8V202C71.1,201.5,70.7,201.1,70.2,201z M64.2,202l1.7,0.3v6.3l-1.6-0.4L64.2,202
						z"/>
					<path class="st2" d="M116.1,195.6c-1.7,0-3,1.3-3,3s1.3,3,3,3s3-1.3,3-3S117.7,195.6,116.1,195.6z"/>
					<path class="st2" d="M123.2,178.7l-22.5,4.4l-2.6-6l24.7-4c0.6-0.1,0.9-0.6,0.8-1.2s-0.6-0.9-1.2-0.8l-2.9,0.5v-10.5
						c0-0.3-0.1-0.6-0.3-0.8c-0.2-0.2-0.5-0.3-0.8-0.2l-19.8,2.7c-0.5,0.1-0.9,0.5-0.9,1v11.4l-5.2,0.8c-0.5,0.1-0.9,0.6-0.8,1.1
						c0,0.1,0,0.1,0.1,0.2l2.8,7.6c-0.1-0.1-0.3-0.1-0.4-0.1h-1.7l-0.9-2.1c-0.2-0.5-0.8-0.7-1.3-0.5l-2,0.8l-0.5-0.7
						c-0.3-0.5-0.9-0.6-1.4-0.3c0,0,0,0-0.1,0l-1,0.7l-1-2.1c-0.1-0.3-0.4-0.5-0.8-0.6c-0.3,0-0.7,0.1-0.9,0.3l-0.9,1l-1.2-1.1
						c0,0-0.1,0-0.1-0.1c-0.1,0-0.1-0.1-0.2-0.1s-0.1-0.1-0.2-0.1h-0.2c-0.1,0-0.1,0-0.2,0s-0.1,0-0.2,0l-0.2,0.1h-0.1l-0.7,0.6
						v-1.2c0-0.6-0.5-1-1-1c-0.2,0-0.4,0.1-0.5,0.2l-1.4,0.9V173h0.1c0.2,0,0.3,0,0.5-0.1l11.6-6.3l-0.1,13.1c0,0.6,0.4,1,1,1l0,0
						c0.6,0,1-0.4,1-1l0.1-14.2l0.2-0.1c0.3-0.2,0.5-0.5,0.5-0.9V161c0-0.2-0.1-0.4-0.2-0.5H91l3.3-0.6l11-1.2
						c0.5-0.1,0.9-0.5,0.9-1.1L106,155h13c0.6,0,1-0.4,1-1v-32c0-0.1,0-0.1,0-0.2l2.4-3.5c0.2-0.3,0.2-0.7,0.1-1
						c-0.2-0.3-0.5-0.5-0.8-0.6l-1.7-0.1V98.8c0-0.6-0.4-1-1-1l-11.2-0.3l0,0l-5.3-0.1l1.3-2.2c0.2-0.3,0.2-0.7,0-1l-1.4-2.6
						l1.6-2.2l1.2,0.7l-1.1,1.1c-0.4,0.4-0.4,1,0,1.4l0,0c0.2,0.2,0.4,0.3,0.7,0.3c0.3,0,0.5-0.1,0.7-0.3l1.5-1.4l0.8,0.5l-0.8,0.9
						c-0.4,0.4-0.4,1,0,1.4l0,0c0.2,0.2,0.4,0.3,0.7,0.3c0.3,0,0.5-0.1,0.7-0.3l1-1.1l1.4,0.9c0.2,0.1,0.3,0.2,0.5,0.2
						c0.5,0.1,1-0.3,1.1-0.9c0.1-0.4-0.1-0.8-0.5-1l-1.1-0.7l1.9-2.1c0.4-0.4,0.3-1-0.1-1.4s-1-0.3-1.4,0.1l0,0l-2.1,2.3l-0.7-0.4
						l2.4-2.3c0.4-0.4,0.4-1,0-1.4l0,0c-0.4-0.4-1-0.4-1.4,0l-2.7,2.6l-3.9-2.5l1.8-1.8c0.4-0.4,0.4-1.1,0-1.5s-1.1-0.4-1.5,0l0,0
						l-2.1,2.1l-0.8-0.5l0.5-0.6c0.3-0.4,0.3-1.1-0.2-1.4s-1.1-0.3-1.4,0.2l0,0l-0.6,0.7l-0.2-0.1c-0.5-0.3-1.1-0.2-1.4,0.3l0,0
						c-0.3,0.5-0.2,1.1,0.3,1.4l0,0l0,0l-0.8,1c-0.3,0.4-0.3,1.1,0.2,1.4c0.2,0.1,0.4,0.2,0.6,0.2c0.3,0,0.6-0.1,0.8-0.4l1-1.1
						l0.6,0.3L97.1,89c-0.4,0.4-0.4,1,0,1.4s1,0.4,1.4,0l2.8-2.8l1,0.6l-2,2.6c-0.2,0.3-0.3,0.7-0.1,1.1l1.4,2.7l-1.6,2.7l-10.5-0.2
						c-0.6,0-1,0.4-1,1l-0.8,16.1c-2.8-0.2-4.6-0.3-4.9-0.3c-1.6,0-5.9,4.2-9.2,7.8c-0.4,0.4-0.4,1,0,1.4c0.2,0.2,0.6,0.3,0.9,0.3
						l3.3-0.7v6.3c-1.2,0-2.4,0-3.6,0.2c-1.8,0.5-14.3,3.3-15,3.5c-0.1,0-0.2,0.1-0.3,0.1s-0.2,0.1-0.2,0.2
						c-0.1,0.1-0.2,0.3-0.3,0.5v0.1v27H44.3c-0.6,0-1,0.4-1,1s0.4,1,1,1h15.2c0.6,0,1-0.4,1-1v-26.9l32.5,2V158l-1.3,0.2
						c0-2.2,0.1-6.7,0-9c0-1.1-0.5-2.2-1.3-2.9c-0.7-0.5-1.6-0.8-2.4-0.7c-0.4,0-3.9,0-5.6,0c-0.9,0-1.8,0.3-2.4,0.9
						c-0.9,1.1-1.4,2.5-1.4,4v8.3c0,0.5,0.4,1,0.9,1l9.2,0.5L74.6,168L60,167.5l8.3-3.1v0.8c0,0.6,0.4,1,1,1s1-0.4,1-1V158H74
						l0.8,7.3c0.1,0.5,0.5,0.9,1,0.9h0.1c0.5-0.1,0.9-0.6,0.9-1.1l-0.9-8.2c-0.1-0.5-0.5-0.9-1-0.9h-5.6c-0.6,0-1,0.4-1,1v5.3
						l-13.8,5.1c-0.1,0-0.2,0.1-0.2,0.1l-0.1,0.1l0,0c0,0,0,0.1-0.1,0.1c-0.1,0.1-0.1,0.1-0.2,0.2v0.1c0,0.1,0,0.2,0,0.2v3.8
						c0,0.6,0.4,1,1,1H57l0.2,18.8v0.1l-1.9,1.2l0,0l-0.1,0.1c-0.1,0.1-0.1,0.1-0.2,0.2v0.1c0,0.1-0.1,0.2-0.1,0.3c0,0,0,0,0,0.1
						l0,0c0,0.1,0,0.2,0,0.3l4,17.8c0.1,0.5,0.5,0.8,1,0.8h0.2c0.5-0.1,0.9-0.7,0.8-1.2l0,0l-3.7-16.4l2.8,0.4v1.2c0,0.6,0.4,1,1,1
						c0.1,0,0.3,0,0.4-0.1L63,197l1,1.9c0.3,0.5,0.9,0.6,1.3,0.4l2.6-1.4l1.1,1.9c0.2,0.3,0.5,0.5,0.9,0.5h0.3l2.7-0.8l3.5,0.6
						l0.2,12.8c0,0.6,0.4,1,1,1l0,0c0.6,0,1-0.4,1-1l-0.2-13.1l11.3-9.1l0.8,19.8c0,0.6,0.4,1,1,1l0,0c0.6,0,1-0.4,1-1l-0.8-21.3
						l3.1-2.5c0.1-0.1,0.2-0.2,0.3-0.4l9,24.4c0.1,0.4,0.5,0.7,0.9,0.7c0.1,0,0.2,0,0.3-0.1c0.5-0.2,0.8-0.8,0.6-1.3L94,177.7
						l1.9-0.3l3.1,7.2c0.2,0.4,0.5,0.6,0.9,0.6c0.1,0,0.1,0,0.2,0l5.9-1.2c1.5,2.1,3.9,3.3,6.5,3.1c1.2,0,2.5-0.2,3.6-0.6
						c2.9-0.5,5.2-2.8,5.7-5.7l1.6-0.3c0.5-0.1,0.9-0.6,0.8-1.2l0,0C124.3,179,123.8,178.6,123.2,178.7L123.2,178.7z M95.1,157.7
						v-21.3l6.8-3.3l2.1,23.6L95.1,157.7z M117.9,153h-12.2l-1.9-21.4c0-0.1,0-0.2-0.1-0.3l0,0l0,0c0-0.1-0.1-0.2-0.2-0.2l-0.1-0.1
						c-0.1-0.1-0.2-0.1-0.3-0.2l0,0l0,0c-2.9-1.1-15.7-1.7-23.2-1.7v-6.2l2.4,1.8c0.4,0.3,1,0.3,1.3-0.1l1.7-1.8l2.8,2.6
						c0.4,0.4,1,0.4,1.4,0l2.3-2.4l1.9,3.1l0.1,0.1l0.1,0.1l0,0H94l0.2,0.1l0,0h0.1h0.1h0.1l0.2-0.1l0.2-0.1c0,0,0,0,0.1,0l4.3-2.9
						l1.5,3.2c0.1,0.3,0.4,0.5,0.7,0.6c0.3,0.1,0.7-0.1,0.9-0.3l2.3-2.4l1.4,2.8l0,0c0.1,0.1,0.1,0.2,0.2,0.3c0,0,0,0,0.1,0.1l0,0
						c0.1,0.1,0.2,0.1,0.3,0.2l0,0h0.1c0,0,0.1,0,0.2,0h0.1c0.1,0,0.1,0,0.2,0s0.1-0.1,0.2-0.1c0,0,0.1,0,0.1-0.1
						c1.6-1.4,3.6-2.9,4.5-3.6c0.5,1.2,1,2.5,1.3,3.8c0.1,0.4,0.4,0.7,0.8,0.7h0.2c0.3,0,0.6-0.2,0.8-0.4l2.5-3.6L117.9,153z
						 M91.7,116.5l8.2,0.6l-5.2,6.7l-1.8-3c-0.2-0.3-0.4-0.4-0.7-0.5c-0.3,0-0.6,0.1-0.8,0.3l-2.5,2.6l-2-1.9l4.8-4.6
						C91.6,116.7,91.6,116.6,91.7,116.5z M119.7,118.6l-4.8,6.8c-1-3.1-1.7-3.5-2.3-3.5c-0.1,0-0.2,0-0.3,0c-0.1,0-0.2,0-0.2,0.1
						l2.8-3.8l0,0L119.7,118.6z M107.3,125.1l-1.3-2.7c-0.1-0.3-0.4-0.5-0.7-0.6c-0.1,0-0.2,0-0.4,0l3.6-4.1l0,0l4.1,0.3
						L107.3,125.1z M101.4,122.9l-0.6-1.3c-0.2-0.5-0.8-0.7-1.3-0.5c0,0-0.1,0-0.1,0.1h-0.1l2.7-3.5c0.1-0.1,0.2-0.3,0.2-0.5
						l3.9,0.3L101.4,122.9z M117.9,116.5l-9.3-0.7l0.2-16.2l9.2,0.2L117.9,116.5z M90.5,99.1l16.2,0.4l-0.2,16.1
						c-5.8-0.4-12.1-0.9-16.8-1.3L90.5,99.1z M82.8,115.9c0.3,0,2.7,0.2,6.2,0.4l-4.5,4.3l0,0l0,0l-1.8,1.8l-2.5-1.9
						c-0.2-0.2-0.5-0.2-0.8-0.2h-0.2c-0.1,0-0.2-0.1-0.3-0.1c-0.2,0-0.5,0.1-0.7,0.3l-0.9,0.2C79.8,118.2,82.2,116.1,82.8,115.9z
						 M66.5,133.1c3.5-0.8,7.4-1.7,8.3-2c1.7-0.4,18,0,24.9,0.9l-5.8,2.8L66.5,133.1z M80.6,150.5c0-0.9,0.3-1.8,0.8-2.6
						c0.3-0.3,0.6-0.4,1-0.4h1.1V158l-2.8-0.2L80.6,150.5z M88.7,163.9L75.8,171v-1.4l12.9-6.9C88.7,162.7,88.7,163.9,88.7,163.9z
						 M55.9,169.3l18,0.6v1.1h-18V169.3z M59,173.1h14.8v7.7c0,0.1,0,0.2,0,0.3l-14.7,9.7L59,173.1z M72.8,197.6l-2.2,0.6l-1.2-2
						c-0.3-0.5-0.9-0.6-1.3-0.4l-2.6,1.4l-1.1-1.9c-0.3-0.4-0.8-0.6-1.3-0.4l-1,0.4v-0.6c0-0.5-0.4-0.9-0.9-1l-2.4-0.3l18.1-11.9
						v1.3c0,0.4,0.2,0.7,0.6,0.9c0.3,0.1,0.7,0.1,1-0.1l1.7-1.2l1.3,1.2c0.2,0.2,0.5,0.3,0.7,0.3c0.3,0,0.5-0.1,0.7-0.3l0.6-0.6
						l0.9,1.9c0.1,0.3,0.4,0.5,0.7,0.5c0.3,0.1,0.6,0,0.8-0.2l1-0.8l0.3,0.5c0.3,0.4,0.8,0.6,1.2,0.4l1.9-0.8l0.8,1.8
						c0.1,0.2,0.3,0.4,0.5,0.5l-14.2,11.4l-4.1-0.7C73,197.5,72.9,197.5,72.8,197.6L72.8,197.6z M115.1,172.5l-12.3,2v-7l12.3-1.7
						V172.5L115.1,172.5z M99.9,164.7l17.8-2.4v9.5c0,0.1,0,0.2,0.1,0.3l-0.6,0.1v-7.6c0-0.6-0.4-1-1-1c-0.1,0-0.1,0-0.1,0l-14.3,2
						c-0.5,0.1-0.9,0.5-0.9,1v8.2l-0.9,0.1L99.9,164.7L99.9,164.7z M115.9,184.7L115.9,184.7c-0.1,0-4.9,1.6-7.4-1.1l11.4-2.3
						C119.3,183.2,117.7,184.5,115.9,184.7L115.9,184.7z"/>
					<path class="st2" d="M258.3,144.7h-20.8c-0.6,0-1,0.4-1,1s0.4,1,1,1h20.8c0.6,0,1-0.4,1-1S258.9,144.7,258.3,144.7z"/>
					<path class="st2" d="M258,148.9h-16.9c-0.6,0-1,0.4-1,1s0.4,1,1,1H258c0.6,0,1-0.4,1-1S258.6,148.9,258,148.9z"/>
					<path class="st2" d="M47.6,124.3h20.8c0.6,0,1-0.4,1-1s-0.4-1-1-1H47.6c-0.6,0-1,0.4-1,1S47,124.3,47.6,124.3z"/>
					<path class="st2" d="M47.9,126.5c-0.6,0-1,0.4-1,1s0.4,1,1,1h16.9c0.6,0,1-0.4,1-1s-0.4-1-1-1H47.9z"/>
					<path class="st2" d="M257,165.2h-14.9c-0.6,0-1,0.4-1,1s0.4,1,1,1H257c0.6,0,1-0.4,1-1S257.6,165.2,257,165.2z"/>
				</g>
			</g>
		</g>
		<path class="st3" d="M119.6,80.9l3.5,128.1c0,7.1,5.8,12.9,12.9,12.9c0,0,0,0,0.1,0h30.3c7.1,0,12.9-5.8,12.9-12.9l3.5-128.1
			c0-7.1-8.8-15.6-20.3-20V20.5c1.4-0.5,2.3-1.7,2.4-3.2v-5.7c0-2-1.9-3.6-4.4-3.6h-18.7c-2.4,0-4.4,1.6-4.4,3.6v5.8
			c0.1,1.5,1,2.7,2.4,3.2v40.6C128.5,65.7,119.6,74,119.6,80.9z M142.2,64.9c0.6-0.2,1.1-0.3,1.7-0.4l0.8-0.2l0.4-0.1h0.1
			c0.2,0,0.5,0,0.4-0.3v-0.2v-0.5v-1.5v-3c-0.1-8-0.3-15.4-0.5-21.9c-0.1-3.3-0.2-6.3-0.1-9.1l0.1-4l0.1-1.9l0.1-1.6v-0.4
			c0-0.1,0.1-0.3-0.1-0.3c-0.2-0.1-0.5-0.2-0.7-0.4c-0.8-0.5-1.4-1.3-1.9-2.1c-0.4-0.7-0.6-1.6-0.6-2.4c-0.2-1.5,0.2-3,1.2-3.5
			c0.7-0.4,1.5-0.5,2.3-0.4c0.3,0,0.5,0.1,0.8,0.1c-0.3,0-0.5,0-0.8,0c-0.7,0-1.5,0.2-2.1,0.6c-0.8,0.6-1,1.8-0.7,3.2
			c0.3,1.5,1.2,2.8,2.5,3.5c0.3,0.2,0.6,0.4,0.9,0.6c0.2,0,0.2,0.3,0.3,0.4l0.1,0.6l0.2,3.9l0.2,4c0.2,2.8,0.5,5.8,0.8,9
			c0.7,6.5,1.3,13.9,1.9,21.9l0.2,3l0.1,2.1c2.8,0.5,5.5,1.3,8.2,2.3L147.9,68l-1.2,0.3l-1,0.2l-0.7,0.2c-0.5,0.1-1,0.3-1.5,0.4
			c-3.9,1.2-7.5,3.2-9.7,6.5s-3.3,7.6-3.7,12.2c-0.4,4.8-0.5,9.6-0.3,14.5c0.5,14.7,1.4,28.9,1.5,41.8s-0.2,24.5-0.1,34.2
			C131.4,198,131,210,131,210l-2.5-31.4c-0.8-9.8-1.1-21.4-1.8-34.2s-1.9-26.9-2.4-41.8c-0.2-5.1,0-10.1,0.4-15.2
			c0.6-5,1.8-10.2,5-14.6c1.6-2.1,3.5-3.9,5.8-5.2C137.6,66.4,139.9,65.5,142.2,64.9L142.2,64.9z"/>
		<path class="st3" d="M160.7,47.1v5c57.9,5.2,100.7,56.4,95.4,114.3s-56.4,100.7-114.3,95.4c-57.9-5.2-100.7-56.4-95.4-114.3
			C51,96.4,91.9,56,143.1,52v-5C82.3,51.4,36.5,104.3,40.9,165.1S98.2,271.7,159,267.3S265.6,210,261.2,149.2
			C257.3,95.1,214.7,51.8,160.7,47.1L160.7,47.1z"/>
		<path class="st4" d="M151.1,209.9c-57.6,0-110,3.8-148.6,10.1v52.7c38.6,6.3,91,10.1,148.6,10.1s110-3.8,148.6-10.1V220
			C261.1,213.7,208.8,209.9,151.1,209.9z"/>
		<path class="st5" d="M38.9,256.9c0.1-1.3-0.3-2.6-1.2-3.6c-1.3-1.1-2.7-1.9-4.3-2.4c-3.8-1.3-6.5-2.9-8.2-4.8
			c-1.7-1.8-2.5-4.2-2.5-6.7c0-3,1.2-5.9,3.4-8c2.3-2.2,5.4-3.6,8.6-3.8c2.1-0.3,4.3,0.1,6.2,0.9c1.8,0.8,3.3,2.2,4.2,4
			c1,2,1.5,4.1,1.5,6.4l-7.6,0.5c0.1-1.5-0.3-2.9-1.1-4.1c-0.8-1-2-1.4-3.3-1.2c-1.2,0-2.3,0.6-3.1,1.5c-0.8,0.9-1.2,2.1-1.1,3.4
			c0,1.1,0.5,2.1,1.2,2.8c1.3,1.1,2.8,1.9,4.4,2.4c3.7,1.2,6.4,2.8,8,4.8c1.7,2.2,2.6,5,2.5,7.8c0,3.5-1,6.3-3.1,8.2s-5,2.9-8.5,2.9
			c-2.3,0-4.6-0.5-6.7-1.5c-2-1-3.6-2.5-4.7-4.3c-1.2-2-1.8-4.3-1.7-6.6l7.7-0.3c0,2.2,0.4,3.8,1.3,4.8c1.1,1.1,2.6,1.6,4.2,1.4
			C37.6,261.3,38.9,259.8,38.9,256.9z"/>
		<path class="st5" d="M78.3,249.7c0,5.7-1.2,10.2-3.6,13.3c-2.3,3.1-6.1,4.9-10,4.7c-3.9,0.2-7.6-1.5-10-4.5s-3.7-7.1-3.7-12.5
			c0-2.8,0-4.2,0-6.9c0-5.6,1.2-10,3.6-13.4c2.3-3.3,6-5.3,10-5.5c3.8-0.5,7.6,1.1,10,4.1c2.4,3.1,3.7,7.6,3.7,13.4
			C78.3,245.4,78.3,246.8,78.3,249.7z M70.6,242.9c0-3.8-0.5-6.6-1.5-8.4c-0.8-1.7-2.6-2.7-4.5-2.5c-1.9,0.1-3.7,1.2-4.5,2.9
			c-1,1.8-1.5,4.5-1.5,8.1v7.3c0,3.6,0.5,6.3,1.5,8c0.9,1.7,2.7,2.6,4.6,2.5c1.9,0.1,3.6-1,4.4-2.6c1-1.7,1.5-4.4,1.5-8
			C70.7,247.3,70.6,245.8,70.6,242.9L70.6,242.9z"/>
		<path class="st5" d="M93.8,223.7c2.4,10.4,4.8,20.9,7.2,31.3c2.4-10.7,4.7-21.3,7.1-31.9c4-0.1,6-0.2,10-0.3c0,14.8,0,29.6,0,44.4
			h-7.7c0-4.8,0-7.2,0-11.9c0.3-7.4,0.4-11.1,0.7-18.4c-2.5,10.1-5,20.2-7.5,30.4h-5.2c-2.5-9.9-5.1-19.9-7.6-29.8
			c0.3,7.2,0.4,10.8,0.7,18.1c0,4.7,0,7,0,11.7h-7.6c0-14.3,0-28.6-0.1-42.9C87.8,224,89.8,223.9,93.8,223.7z"/>
		<path class="st5" d="M134.2,222.5c2.4,10.8,4.8,21.5,7.2,32.3c2.4-10.8,4.8-21.6,7.1-32.4c4,0,6,0,10,0c0,14.9,0,29.9,0,44.8h-7.7
			V255l0.7-18.7c-2.5,10.3-5.1,20.6-7.6,30.8h-5.2c-2.5-10.2-5.1-20.5-7.6-30.7c0.3,7.4,0.4,11.2,0.7,18.6c0,4.8,0,7.2,0,12.1h-7.7
			c0-14.8,0-29.7,0-44.5C128.2,222.6,130.2,222.5,134.2,222.5z"/>
		<path class="st5" d="M184.2,248c-4.8-0.1-7.1-0.1-11.9-0.1c0,4.7,0,7.1,0,11.9l14.1,0.1c0,3,0,4.5,0,7.4h-21.8
			c0-14.9,0-29.9,0-44.8c8.7,0.1,13,0.2,21.7,0.4c0,3,0,4.5,0,7.5c-5.6-0.1-8.4-0.2-14.1-0.3c0,4.2,0,6.3,0,10.6
			c4.8,0.1,7.2,0.1,11.9,0.2C184.2,243.6,184.2,245.1,184.2,248z"/>
		<path class="st5" d="M198.4,259.8l13.4,0.1c0,2.9,0,4.4,0,7.3h-21.1l0.1-44.2c3.1,0.1,4.6,0.2,7.7,0.3L198.4,259.8z"/>
		<path class="st5" d="M224.3,267.2h-7.6c0-14.4,0-28.8,0.1-43.1c3.1,0.2,4.6,0.2,7.6,0.4C224.3,238.7,224.3,253,224.3,267.2z"/>
		<path class="st5" d="M250.3,249.5c-4.8-0.2-7.1-0.2-11.9-0.4c0,4.4,0,6.6,0,11.1l14.1,0.2c0,2.7,0,4.1,0,6.8h-21.8
			c0-14.1,0-28.2,0.1-42.3c8.7,0.6,13,0.9,21.7,1.6c0,2.7,0,4.1,0,6.9c-5.6-0.4-8.4-0.6-14-0.9c0,3.9,0,5.9,0,9.9
			c4.8,0.2,7.1,0.3,11.9,0.6C250.3,245.6,250.3,246.9,250.3,249.5z"/>
		<path class="st5" d="M268.3,252.9l-3.8-0.1c0,5.8,0,8.7,0,14.5h-7.6L257,227c4.9,0.4,7.3,0.6,12.2,1.1c3.3,0.2,6.5,1.6,8.9,3.9
			c2.2,2.4,3.3,5.6,3.1,8.8c0,5-1.8,8.5-5.5,10.3c2.6,6.4,4,9.6,6.6,15.8v0.4H274C271.7,261.6,270.6,258.7,268.3,252.9z
			 M264.5,246.1l4.3,0.2c1.3,0.2,2.6-0.4,3.4-1.4c0.8-1.2,1.2-2.7,1.1-4.1c0-3.9-1.5-6-4.4-6.2l-4.5-0.4
			C264.5,239,264.5,241.4,264.5,246.1z"/>
		<g class="st6">
			<path class="st7" d="M69.1,303.4c-0.1,15.2-17.2,17.5-22.7,17.5c-0.5,0-1.1-0.1-1.6-0.1l-0.4,0.8l-1.1-0.1l-0.6,1.6l-0.6-0.2
				c0,0-0.4,0.7-0.5,0.7c-0.1-0.4-0.1-1.8-0.2-3.6c-3.9-1.5-8.3-5.1-8.3-13.8c0,0,1-2.1,1,0.1c0,1.6,2.9,3.9,7,5
				c-0.2-6.8-0.4-14.9-0.8-20.5c-1.5,0.3-2.9,0.6-4.4,1.1c-1.9-0.9-3.9-7-1.7-9.3C36.4,280.1,69.3,275.5,69.1,303.4z M46.6,311.8
				c-0.1-3.5,0-7.4,0-7.4l-0.5,7.4c0.1,0,0.2,0,0.3,0C46.4,311.8,46.5,311.8,46.6,311.8z M48.4,290.8c-0.1,6.9-0.5,16.2-0.7,21
				c7.4-0.6,16.2-5.9,16.5-10.4C64.4,297.6,57.4,292.2,48.4,290.8z"/>
		</g>
		<g class="st6">
			<path class="st8" d="M69.1,303.4c-0.1,15.2-17.2,17.5-22.7,17.5c-0.5,0-1.1-0.1-1.6-0.1l-0.4,0.8l-1.1-0.1l-0.6,1.6l-0.6-0.2
				c0,0-0.4,0.7-0.5,0.7c-0.1-0.4-0.1-1.8-0.2-3.6c-3.9-1.5-8.3-5.1-8.3-13.8c0,0,1-2.1,1,0.1c0,1.6,2.9,3.9,7,5
				c-0.2-6.8-0.4-14.9-0.8-20.5c-1.5,0.3-2.9,0.6-4.4,1.1c-1.9-0.9-3.9-7-1.7-9.3C36.4,280.1,69.3,275.5,69.1,303.4z M46.6,311.8
				c-0.1-3.5,0-7.4,0-7.4l-0.5,7.4c0.1,0,0.2,0,0.3,0C46.4,311.8,46.5,311.8,46.6,311.8z M48.4,290.8c-0.1,6.9-0.5,16.2-0.7,21
				c7.4-0.6,16.2-5.9,16.5-10.4C64.4,297.6,57.4,292.2,48.4,290.8z"/>
		</g>
		<g class="st6">
			<path class="st7" d="M100.6,307.4c0,0.4-1.1,1.5-1.1,1.5l-0.3,0.7l-2.2,1.1l1.6,0.2c0,0-1.6,0.6-2.6,1.4s-1.3,1.6-2.1,1.9
				c-0.6,0-13,2.8-24.8,8.5c-1.8,0.9-5.2-6.8-2.2-8.3c0.3-0.2,0.7-0.4,1.2-0.5c0-10,0.3-27.7-0.8-31.4c0,0,2.3-0.9,4.6-0.7
				c6.2-0.8,19.6-0.5,23.5-0.5c-0.1,0.4-0.1,1.5-0.1,1.5s-1.1,0.5-1.8,1.3c-0.2,0.2-1.3,1-1.3,1l1.2,0.1l-1.9,1l-0.1,0.7
				c0,0-2.3,1-2.7,1.1c-0.3,0-6.3,1-11.4,1.8c0,0.5-0.1,0.9-0.1,1.4c-0.1,1.5-0.2,2.9-0.3,4.3c5.2-0.6,11.6-1,14.7-0.9
				c0,0.4-0.5,1.2-0.5,1.2L91,297l-1.8,1l0.8,0.1l-1.9,1.2l0.1,0.6l-2.1,0.5l-0.4,0.7c0,0-2.1,1-2.9,1.3c-0.4,0-3.6,0.9-6.5,1.6
				c-0.3,3.1-0.6,5.5-0.9,7C83.1,308.5,93.8,306.1,100.6,307.4z"/>
		</g>
		<g class="st6">
			<path class="st8" d="M100.6,307.4c0,0.4-1.1,1.5-1.1,1.5l-0.3,0.7l-2.2,1.1l1.6,0.2c0,0-1.6,0.6-2.6,1.4s-1.3,1.6-2.1,1.9
				c-0.6,0-13,2.8-24.8,8.5c-1.8,0.9-5.2-6.8-2.2-8.3c0.3-0.2,0.7-0.4,1.2-0.5c0-10,0.3-27.7-0.8-31.4c0,0,2.3-0.9,4.6-0.7
				c6.2-0.8,19.6-0.5,23.5-0.5c-0.1,0.4-0.1,1.5-0.1,1.5s-1.1,0.5-1.8,1.3c-0.2,0.2-1.3,1-1.3,1l1.2,0.1l-1.9,1l-0.1,0.7
				c0,0-2.3,1-2.7,1.1c-0.3,0-6.3,1-11.4,1.8c0,0.5-0.1,0.9-0.1,1.4c-0.1,1.5-0.2,2.9-0.3,4.3c5.2-0.6,11.6-1,14.7-0.9
				c0,0.4-0.5,1.2-0.5,1.2L91,297l-1.8,1l0.8,0.1l-1.9,1.2l0.1,0.6l-2.1,0.5l-0.4,0.7c0,0-2.1,1-2.9,1.3c-0.4,0-3.6,0.9-6.5,1.6
				c-0.3,3.1-0.6,5.5-0.9,7C83.1,308.5,93.8,306.1,100.6,307.4z"/>
		</g>
		<g class="st6">
			<path class="st7" d="M130.6,320.9c-2.1,0-5.9,0.3-9.6-0.6c-0.2,0.4-0.5,0.8-0.6,1.1c-0.3,0.5-0.7-0.1-0.9-0.6
				c-0.2,1.2-0.1,1.6-0.5,1.8c-0.3,0.2-0.6,1.1-0.9,1.1c-0.1-0.5-0.2-2.2-0.2-4.6c-2.9-1.6-5.3-4.4-5.9-9.5c1.3,0.8,3.3,1.6,5.7,2.2
				c-0.1-3-0.1-6.2-0.2-9.4c-0.9,0-1.9,0.1-3,0.1c0,0-3.1-1.9-1.2-6.3c0.1-0.1,0.6-0.3,1.5-0.5l-0.1-0.6c0,0,1-0.2,2.5-0.6
				c-0.1-2.1-0.2-4-0.4-5.7c-0.7,0-1.2-0.1-1.3-0.2c-0.9-0.7-1.8-3.8-1-5.2c0,0,0.6-0.1,1.7-0.3c-0.1-0.3-0.1-0.5-0.2-0.7
				c0,0,4.3-1.8,6.8-0.1c5.4-0.6,12.2-0.9,16.2,0.2c1.9,1.4,2.4,5,2.4,7.8c0,0-0.5,2.7-5.1,5.2c6.3,1.5,11.6,5.1,12,12.5
				C148.9,317.1,140.6,320.9,130.6,320.9z M124.8,302.2c-0.2,4.7-0.5,8.1-0.8,10.3c5.6,0.2,12-0.9,17.1-4.6
				C141.1,307.8,142,302.6,124.8,302.2z M124.8,292c3.4-1.2,6.8-2.6,8.6-4c-0.7-0.4-4.6-0.1-8.6,0.2
				C124.8,289.5,124.8,290.8,124.8,292z"/>
		</g>
		<g class="st6">
			<path class="st8" d="M130.6,320.9c-2.1,0-5.9,0.3-9.6-0.6c-0.2,0.4-0.5,0.8-0.6,1.1c-0.3,0.5-0.7-0.1-0.9-0.6
				c-0.2,1.2-0.1,1.6-0.5,1.8c-0.3,0.2-0.6,1.1-0.9,1.1c-0.1-0.5-0.2-2.2-0.2-4.6c-2.9-1.6-5.3-4.4-5.9-9.5c1.3,0.8,3.3,1.6,5.7,2.2
				c-0.1-3-0.1-6.2-0.2-9.4c-0.9,0-1.9,0.1-3,0.1c0,0-3.1-1.9-1.2-6.3c0.1-0.1,0.6-0.3,1.5-0.5l-0.1-0.6c0,0,1-0.2,2.5-0.6
				c-0.1-2.1-0.2-4-0.4-5.7c-0.7,0-1.2-0.1-1.3-0.2c-0.9-0.7-1.8-3.8-1-5.2c0,0,0.6-0.1,1.7-0.3c-0.1-0.3-0.1-0.5-0.2-0.7
				c0,0,4.3-1.8,6.8-0.1c5.4-0.6,12.2-0.9,16.2,0.2c1.9,1.4,2.4,5,2.4,7.8c0,0-0.5,2.7-5.1,5.2c6.3,1.5,11.6,5.1,12,12.5
				C148.9,317.1,140.6,320.9,130.6,320.9z M124.8,302.2c-0.2,4.7-0.5,8.1-0.8,10.3c5.6,0.2,12-0.9,17.1-4.6
				C141.1,307.8,142,302.6,124.8,302.2z M124.8,292c3.4-1.2,6.8-2.6,8.6-4c-0.7-0.4-4.6-0.1-8.6,0.2
				C124.8,289.5,124.8,290.8,124.8,292z"/>
		</g>
		<g class="st6">
			<path class="st7" d="M175.4,319.7c-0.1,0.4-0.6,2.4-0.6,2.4l-0.5-0.3c-6.3-0.9-17.7,0.5-22.6,2.1c-4.1,1.3-5.3-4.3-3.6-8.1
				c6.2-3.6,24.7-2,26.5,1.2c0.1,0.1-0.3-0.1-0.3-0.1l0.8,1l-0.5,0.1C174.6,318,175.5,319.3,175.4,319.7z M147.8,307.3
				c2.8-6.8,5.6-15.2,6.9-25.9c4.8-0.7,7.5-0.5,8.9,0.4c2.3-0.1,4.5,0.7,4.9,3.4c0.5,3.8,2.3,14.3,6.9,26.6c-0.1,0-0.9-0.9-0.9-0.9
				l-0.4,0.6l-0.6-0.4l-0.5-0.3l-0.6,0.5c0,0-0.2-0.5-0.5-1.1c-0.2,0.5-0.9,2.3-0.9,2.3l-0.5-0.4c-6-1.7-12.9-0.9-17.9,0
				c-2.7,0.5-3.8-1.6-3.8-4.2C148.4,307.7,148.2,307.3,147.8,307.3z M165,304c-1.3-3-2.5-6-3.5-8.8c-1.1,2.7-2.2,5.2-3.5,7.6
				C160.4,302.9,162.8,303.4,165,304z"/>
		</g>
		<g class="st6">
			<path class="st8" d="M175.4,319.7c-0.1,0.4-0.6,2.4-0.6,2.4l-0.5-0.3c-6.3-0.9-17.7,0.5-22.6,2.1c-4.1,1.3-5.3-4.3-3.6-8.1
				c6.2-3.6,24.7-2,26.5,1.2c0.1,0.1-0.3-0.1-0.3-0.1l0.8,1l-0.5,0.1C174.6,318,175.5,319.3,175.4,319.7z M147.8,307.3
				c2.8-6.8,5.6-15.2,6.9-25.9c4.8-0.7,7.5-0.5,8.9,0.4c2.3-0.1,4.5,0.7,4.9,3.4c0.5,3.8,2.3,14.3,6.9,26.6c-0.1,0-0.9-0.9-0.9-0.9
				l-0.4,0.6l-0.6-0.4l-0.5-0.3l-0.6,0.5c0,0-0.2-0.5-0.5-1.1c-0.2,0.5-0.9,2.3-0.9,2.3l-0.5-0.4c-6-1.7-12.9-0.9-17.9,0
				c-2.7,0.5-3.8-1.6-3.8-4.2C148.4,307.7,148.2,307.3,147.8,307.3z M165,304c-1.3-3-2.5-6-3.5-8.8c-1.1,2.7-2.2,5.2-3.5,7.6
				C160.4,302.9,162.8,303.4,165,304z"/>
		</g>
		<g class="st6">
			<path class="st7" d="M199.7,307.5c2.2,4,3.2,9,2.4,12.6c0.4-5.5-2.1-9.3-2.1-9.3s2.2,7.5,1.5,10c-0.1-0.1-0.3-0.4-0.3-0.4
				s-0.7,1.2-1.1,1.2s-1.5,0.4-1.5,0.4l-0.5-0.6c-1.2-4.6-3.9-8.7-6.5-12c-2.1,0.3-4,0.4-5.2,0.4c-0.1,0-0.2,0-0.4,0
				c-0.2,3.6-0.4,6-0.4,6s-0.4,0.7-1,1.6c-0.4,0.5-1.2,2.3-1.2,2.3s-0.7,0.2-1.1,0.8c-0.1,0.2-0.5,1.2-0.5,1.2l-0.5-0.1l-0.7,1.1
				c0,0-0.4-0.3-0.5-0.2c-0.3,0.1-0.5,0.8-0.7,0.8c-0.2-1-0.4-7.8-0.6-15.7c-1.8-1.1-3.4-2.9-4.2-5.7c-0.1-0.2-0.4-1.6-0.2-2.4
				c0.3,1.6,1.2,3.8,1.8,4.3c-1.1-2.2-1.5-4.4-1.2-5.7c0.3,0.9,1.6,1.9,3.7,2.8c-0.2-3.9-0.4-7.7-0.5-10.8c-1.2,0.2-2.3,0.4-3.6,0.7
				c-1.9-0.7-3.7-5.7-1.6-7.6c2.1-1.9,34.7-9.4,34.5,13.2C207.5,302.4,204,305.7,199.7,307.5z M186.9,289.2c0.1,0.6,0.1,1.3,0.1,2.1
				c-0.1,3.7-0.2,7.6-0.5,11.3c7.1-0.1,16.2-3.8,16.5-7.6C203.2,291.6,197.3,288.8,186.9,289.2z"/>
		</g>
		<g class="st6">
			<path class="st8" d="M199.7,307.5c2.2,4,3.2,9,2.4,12.6c0.4-5.5-2.1-9.3-2.1-9.3s2.2,7.5,1.5,10c-0.1-0.1-0.3-0.4-0.3-0.4
				s-0.7,1.2-1.1,1.2s-1.5,0.4-1.5,0.4l-0.5-0.6c-1.2-4.6-3.9-8.7-6.5-12c-2.1,0.3-4,0.4-5.2,0.4c-0.1,0-0.2,0-0.4,0
				c-0.2,3.6-0.4,6-0.4,6s-0.4,0.7-1,1.6c-0.4,0.5-1.2,2.3-1.2,2.3s-0.7,0.2-1.1,0.8c-0.1,0.2-0.5,1.2-0.5,1.2l-0.5-0.1l-0.7,1.1
				c0,0-0.4-0.3-0.5-0.2c-0.3,0.1-0.5,0.8-0.7,0.8c-0.2-1-0.4-7.8-0.6-15.7c-1.8-1.1-3.4-2.9-4.2-5.7c-0.1-0.2-0.4-1.6-0.2-2.4
				c0.3,1.6,1.2,3.8,1.8,4.3c-1.1-2.2-1.5-4.4-1.2-5.7c0.3,0.9,1.6,1.9,3.7,2.8c-0.2-3.9-0.4-7.7-0.5-10.8c-1.2,0.2-2.3,0.4-3.6,0.7
				c-1.9-0.7-3.7-5.7-1.6-7.6c2.1-1.9,34.7-9.4,34.5,13.2C207.5,302.4,204,305.7,199.7,307.5z M186.9,289.2c0.1,0.6,0.1,1.3,0.1,2.1
				c-0.1,3.7-0.2,7.6-0.5,11.3c7.1-0.1,16.2-3.8,16.5-7.6C203.2,291.6,197.3,288.8,186.9,289.2z"/>
		</g>
		<g class="st6">
			<path class="st7" d="M232.8,307.5c2.2,4,3.2,9,2.4,12.6c0.4-5.5-2.1-9.3-2.1-9.3s2.2,7.5,1.5,10c-0.1-0.1-0.3-0.4-0.3-0.4
				s-0.7,1.2-1.1,1.2s-1.5,0.4-1.5,0.4l-0.5-0.6c-1.2-4.6-3.9-8.7-6.5-12c-2.1,0.3-4,0.4-5.2,0.4c-0.1,0-0.2,0-0.4,0
				c-0.2,3.6-0.4,6-0.4,6s-0.4,0.7-1,1.6c-0.4,0.5-1.2,2.3-1.2,2.3s-0.7,0.2-1.1,0.8c-0.1,0.2-0.5,1.2-0.5,1.2l-0.5-0.1l-0.7,1.1
				c0,0-0.4-0.3-0.5-0.2c-0.3,0.1-0.5,0.8-0.7,0.8c-0.2-1-0.4-7.8-0.6-15.7c-1.8-1.1-3.4-2.9-4.2-5.7c-0.1-0.2-0.4-1.6-0.2-2.4
				c0.3,1.6,1.2,3.8,1.8,4.3c-1.1-2.2-1.5-4.4-1.2-5.7c0.3,0.9,1.6,1.9,3.7,2.8c-0.2-3.9-0.4-7.7-0.5-10.8c-1.2,0.2-2.3,0.4-3.6,0.7
				c-1.9-0.7-3.7-5.7-1.6-7.6c2.1-1.9,34.7-9.4,34.5,13.2C240.6,302.4,237.1,305.7,232.8,307.5z M220,289.2c0.1,0.6,0.1,1.3,0.1,2.1
				c-0.1,3.7-0.2,7.6-0.5,11.3c7.1-0.1,16.2-3.8,16.5-7.6C236.3,291.6,230.5,288.8,220,289.2z"/>
		</g>
		<g class="st6">
			<path class="st8" d="M232.8,307.5c2.2,4,3.2,9,2.4,12.6c0.4-5.5-2.1-9.3-2.1-9.3s2.2,7.5,1.5,10c-0.1-0.1-0.3-0.4-0.3-0.4
				s-0.7,1.2-1.1,1.2s-1.5,0.4-1.5,0.4l-0.5-0.6c-1.2-4.6-3.9-8.7-6.5-12c-2.1,0.3-4,0.4-5.2,0.4c-0.1,0-0.2,0-0.4,0
				c-0.2,3.6-0.4,6-0.4,6s-0.4,0.7-1,1.6c-0.4,0.5-1.2,2.3-1.2,2.3s-0.7,0.2-1.1,0.8c-0.1,0.2-0.5,1.2-0.5,1.2l-0.5-0.1l-0.7,1.1
				c0,0-0.4-0.3-0.5-0.2c-0.3,0.1-0.5,0.8-0.7,0.8c-0.2-1-0.4-7.8-0.6-15.7c-1.8-1.1-3.4-2.9-4.2-5.7c-0.1-0.2-0.4-1.6-0.2-2.4
				c0.3,1.6,1.2,3.8,1.8,4.3c-1.1-2.2-1.5-4.4-1.2-5.7c0.3,0.9,1.6,1.9,3.7,2.8c-0.2-3.9-0.4-7.7-0.5-10.8c-1.2,0.2-2.3,0.4-3.6,0.7
				c-1.9-0.7-3.7-5.7-1.6-7.6c2.1-1.9,34.7-9.4,34.5,13.2C240.6,302.4,237.1,305.7,232.8,307.5z M220,289.2c0.1,0.6,0.1,1.3,0.1,2.1
				c-0.1,3.7-0.2,7.6-0.5,11.3c7.1-0.1,16.2-3.8,16.5-7.6C236.3,291.6,230.5,288.8,220,289.2z"/>
		</g>
		<g class="st6">
			<path class="st7" d="M251.8,290.3c-0.5,12.1-1.7,26.4-1.7,26.4l-0.4-0.5l-0.3,1.5l-0.7,0.2l-0.8,2.2l-1.7,1l-1,1.3l-0.5-0.4
				l-0.5,1.6c0,0-0.5,0.6-0.8,0.6c-0.4-2.5-0.2-35.5-1.6-42.5c-0.1-0.2,0.2-0.8,0.8-0.9C245.3,280.2,252.1,279.5,251.8,290.3z"/>
		</g>
		<g class="st6">
			<path class="st8" d="M251.8,290.3c-0.5,12.1-1.7,26.4-1.7,26.4l-0.4-0.5l-0.3,1.5l-0.7,0.2l-0.8,2.2l-1.7,1l-1,1.3l-0.5-0.4
				l-0.5,1.6c0,0-0.5,0.6-0.8,0.6c-0.4-2.5-0.2-35.5-1.6-42.5c-0.1-0.2,0.2-0.8,0.8-0.9C245.3,280.2,252.1,279.5,251.8,290.3z"/>
		</g>
		<g class="st6">
			<path class="st7" d="M259.4,282c2.5-1.1,5.7,1.6,5.9,2.8c0.1,0.4,0.1,1.3-0.6,1.4c-0.8,1.5-2.4,3.8-2.4,7.9c0,6.6,3.4,8.8,4,8.9
				c1.1,0.1,4.3-2.9,4.3-9.7c0-8.6-5.3-8.3-5.3-8.3l-0.2-0.1c0,0,0.6-0.2,0.5-0.4c-0.1-0.1-0.4-0.3-0.4-0.4c0.1-0.2,0.2-0.6,0.7-0.8
				c3-1.3,11.8,1.2,11.8,11.9c0,8.7-4.5,16-11.3,15.9c-7.7-0.1-12.1-10.1-12.1-15.2C254.4,287.6,258.7,282.3,259.4,282z
				 M259.3,322.6c4.9-1.6,11.6-3.3,17.8-2.4l0.5,0.3c0,0,0.5-2,0.6-2.4s-0.8-1.7-0.8-1.7l0.5-0.1l-0.8-0.9c0,0,0.4,0.1,0.3,0
				c-1.8-3.2-15.6-4.4-21.8-0.8C254,318.3,255.2,324,259.3,322.6z"/>
		</g>
		<g class="st6">
			<path class="st8" d="M259.4,282c2.5-1.1,5.7,1.6,5.9,2.8c0.1,0.4,0.1,1.3-0.6,1.4c-0.8,1.5-2.4,3.8-2.4,7.9c0,6.6,3.4,8.8,4,8.9
				c1.1,0.1,4.3-2.9,4.3-9.7c0-8.6-5.3-8.3-5.3-8.3l-0.2-0.1c0,0,0.6-0.2,0.5-0.4c-0.1-0.1-0.4-0.3-0.4-0.4c0.1-0.2,0.2-0.6,0.7-0.8
				c3-1.3,11.8,1.2,11.8,11.9c0,8.7-4.5,16-11.3,15.9c-7.7-0.1-12.1-10.1-12.1-15.2C254.4,287.6,258.7,282.3,259.4,282z
				 M259.3,322.6c4.9-1.6,11.6-3.3,17.8-2.4l0.5,0.3c0,0,0.5-2,0.6-2.4s-0.8-1.7-0.8-1.7l0.5-0.1l-0.8-0.9c0,0,0.4,0.1,0.3,0
				c-1.8-3.2-15.6-4.4-21.8-0.8C254,318.3,255.2,324,259.3,322.6z"/>
		</g>
		<g class="st6">
			<path class="st2" d="M69.1,303.4c-0.1,15.2-17.2,17.5-22.7,17.5c-0.5,0-1.1-0.1-1.6-0.1l-0.4,0.8l-1.1-0.1l-0.6,1.6l-0.6-0.2
				c0,0-0.4,0.7-0.5,0.7c-0.1-0.4-0.1-1.8-0.2-3.6c-3.9-1.5-8.3-5.1-8.3-13.8c0,0,1-2.1,1,0.1c0,1.6,2.9,3.9,7,5
				c-0.2-6.8-0.4-14.9-0.8-20.5c-1.5,0.3-2.9,0.6-4.4,1.1c-1.9-0.9-3.9-7-1.7-9.3C36.4,280.1,69.3,275.5,69.1,303.4z M46.6,311.8
				c-0.1-3.5,0-7.4,0-7.4l-0.5,7.4c0.1,0,0.2,0,0.3,0C46.4,311.8,46.5,311.8,46.6,311.8z M48.4,290.8c-0.1,6.9-0.5,16.2-0.7,21
				c7.4-0.6,16.2-5.9,16.5-10.4C64.4,297.6,57.4,292.2,48.4,290.8z"/>
		</g>
		<g class="st6">
			<path class="st2" d="M100.6,307.4c0,0.4-1.1,1.5-1.1,1.5l-0.3,0.7l-2.2,1.1l1.6,0.2c0,0-1.6,0.6-2.6,1.4s-1.3,1.6-2.1,1.9
				c-0.6,0-13,2.8-24.8,8.5c-1.8,0.9-5.2-6.8-2.2-8.3c0.3-0.2,0.7-0.4,1.2-0.5c0-10,0.3-27.7-0.8-31.4c0,0,2.3-0.9,4.6-0.7
				c6.2-0.8,19.6-0.5,23.5-0.5c-0.1,0.4-0.1,1.5-0.1,1.5s-1.1,0.5-1.8,1.3c-0.2,0.2-1.3,1-1.3,1l1.2,0.1l-1.9,1l-0.1,0.7
				c0,0-2.3,1-2.7,1.1c-0.3,0-6.3,1-11.4,1.8c0,0.5-0.1,0.9-0.1,1.4c-0.1,1.5-0.2,2.9-0.3,4.3c5.2-0.6,11.6-1,14.7-0.9
				c0,0.4-0.5,1.2-0.5,1.2L91,297l-1.8,1l0.8,0.1l-1.9,1.2l0.1,0.6l-2.1,0.5l-0.4,0.7c0,0-2.1,1-2.9,1.3c-0.4,0-3.6,0.9-6.5,1.6
				c-0.3,3.1-0.6,5.5-0.9,7C83.1,308.5,93.8,306.1,100.6,307.4z"/>
		</g>
		<g class="st6">
			<path class="st2" d="M130.6,320.9c-2.1,0-5.9,0.3-9.6-0.6c-0.2,0.4-0.5,0.8-0.6,1.1c-0.3,0.5-0.7-0.1-0.9-0.6
				c-0.2,1.2-0.1,1.6-0.5,1.8c-0.3,0.2-0.6,1.1-0.9,1.1c-0.1-0.5-0.2-2.2-0.2-4.6c-2.9-1.6-5.3-4.4-5.9-9.5c1.3,0.8,3.3,1.6,5.7,2.2
				c-0.1-3-0.1-6.2-0.2-9.4c-0.9,0-1.9,0.1-3,0.1c0,0-3.1-1.9-1.2-6.3c0.1-0.1,0.6-0.3,1.5-0.5l-0.1-0.6c0,0,1-0.2,2.5-0.6
				c-0.1-2.1-0.2-4-0.4-5.7c-0.7,0-1.2-0.1-1.3-0.2c-0.9-0.7-1.8-3.8-1-5.2c0,0,0.6-0.1,1.7-0.3c-0.1-0.3-0.1-0.5-0.2-0.7
				c0,0,4.3-1.8,6.8-0.1c5.4-0.6,12.2-0.9,16.2,0.2c1.9,1.4,2.4,5,2.4,7.8c0,0-0.5,2.7-5.1,5.2c6.3,1.5,11.6,5.1,12,12.5
				C148.9,317.1,140.6,320.9,130.6,320.9z M124.8,302.2c-0.2,4.7-0.5,8.1-0.8,10.3c5.6,0.2,12-0.9,17.1-4.6
				C141.1,307.8,142,302.6,124.8,302.2z M124.8,292c3.4-1.2,6.8-2.6,8.6-4c-0.7-0.4-4.6-0.1-8.6,0.2
				C124.8,289.5,124.8,290.8,124.8,292z"/>
		</g>
		<g class="st6">
			<path class="st2" d="M175.4,319.7c-0.1,0.4-0.6,2.4-0.6,2.4l-0.5-0.3c-6.3-0.9-17.7,0.5-22.6,2.1c-4.1,1.3-5.3-4.3-3.6-8.1
				c6.2-3.6,24.7-2,26.5,1.2c0.1,0.1-0.3-0.1-0.3-0.1l0.8,1l-0.5,0.1C174.6,318,175.5,319.3,175.4,319.7z M147.8,307.3
				c2.8-6.8,5.6-15.2,6.9-25.9c4.8-0.7,7.5-0.5,8.9,0.4c2.3-0.1,4.5,0.7,4.9,3.4c0.5,3.8,2.3,14.3,6.9,26.6c-0.1,0-0.9-0.9-0.9-0.9
				l-0.4,0.6l-0.6-0.4l-0.5-0.3l-0.6,0.5c0,0-0.2-0.5-0.5-1.1c-0.2,0.5-0.9,2.3-0.9,2.3l-0.5-0.4c-6-1.7-12.9-0.9-17.9,0
				c-2.7,0.5-3.8-1.6-3.8-4.2C148.4,307.7,148.2,307.3,147.8,307.3z M165,304c-1.3-3-2.5-6-3.5-8.8c-1.1,2.7-2.2,5.2-3.5,7.6
				C160.4,302.9,162.8,303.4,165,304z"/>
		</g>
		<g class="st6">
			<path class="st2" d="M199.7,307.5c2.2,4,3.2,9,2.4,12.6c0.4-5.5-2.1-9.3-2.1-9.3s2.2,7.5,1.5,10c-0.1-0.1-0.3-0.4-0.3-0.4
				s-0.7,1.2-1.1,1.2s-1.5,0.4-1.5,0.4l-0.5-0.6c-1.2-4.6-3.9-8.7-6.5-12c-2.1,0.3-4,0.4-5.2,0.4c-0.1,0-0.2,0-0.4,0
				c-0.2,3.6-0.4,6-0.4,6s-0.4,0.7-1,1.6c-0.4,0.5-1.2,2.3-1.2,2.3s-0.7,0.2-1.1,0.8c-0.1,0.2-0.5,1.2-0.5,1.2l-0.5-0.1l-0.7,1.1
				c0,0-0.4-0.3-0.5-0.2c-0.3,0.1-0.5,0.8-0.7,0.8c-0.2-1-0.4-7.8-0.6-15.7c-1.8-1.1-3.4-2.9-4.2-5.7c-0.1-0.2-0.4-1.6-0.2-2.4
				c0.3,1.6,1.2,3.8,1.8,4.3c-1.1-2.2-1.5-4.4-1.2-5.7c0.3,0.9,1.6,1.9,3.7,2.8c-0.2-3.9-0.4-7.7-0.5-10.8c-1.2,0.2-2.3,0.4-3.6,0.7
				c-1.9-0.7-3.7-5.7-1.6-7.6c2.1-1.9,34.7-9.4,34.5,13.2C207.5,302.4,204,305.7,199.7,307.5z M186.9,289.2c0.1,0.6,0.1,1.3,0.1,2.1
				c-0.1,3.7-0.2,7.6-0.5,11.3c7.1-0.1,16.2-3.8,16.5-7.6C203.2,291.6,197.3,288.8,186.9,289.2z"/>
		</g>
		<g class="st6">
			<path class="st2" d="M232.8,307.5c2.2,4,3.2,9,2.4,12.6c0.4-5.5-2.1-9.3-2.1-9.3s2.2,7.5,1.5,10c-0.1-0.1-0.3-0.4-0.3-0.4
				s-0.7,1.2-1.1,1.2s-1.5,0.4-1.5,0.4l-0.5-0.6c-1.2-4.6-3.9-8.7-6.5-12c-2.1,0.3-4,0.4-5.2,0.4c-0.1,0-0.2,0-0.4,0
				c-0.2,3.6-0.4,6-0.4,6s-0.4,0.7-1,1.6c-0.4,0.5-1.2,2.3-1.2,2.3s-0.7,0.2-1.1,0.8c-0.1,0.2-0.5,1.2-0.5,1.2l-0.5-0.1l-0.7,1.1
				c0,0-0.4-0.3-0.5-0.2c-0.3,0.1-0.5,0.8-0.7,0.8c-0.2-1-0.4-7.8-0.6-15.7c-1.8-1.1-3.4-2.9-4.2-5.7c-0.1-0.2-0.4-1.6-0.2-2.4
				c0.3,1.6,1.2,3.8,1.8,4.3c-1.1-2.2-1.5-4.4-1.2-5.7c0.3,0.9,1.6,1.9,3.7,2.8c-0.2-3.9-0.4-7.7-0.5-10.8c-1.2,0.2-2.3,0.4-3.6,0.7
				c-1.9-0.7-3.7-5.7-1.6-7.6c2.1-1.9,34.7-9.4,34.5,13.2C240.6,302.4,237.1,305.7,232.8,307.5z M220,289.2c0.1,0.6,0.1,1.3,0.1,2.1
				c-0.1,3.7-0.2,7.6-0.5,11.3c7.1-0.1,16.2-3.8,16.5-7.6C236.3,291.6,230.5,288.8,220,289.2z"/>
		</g>
		<g class="st6">
			<path class="st2" d="M251.8,290.3c-0.5,12.1-1.7,26.4-1.7,26.4l-0.4-0.5l-0.3,1.5l-0.7,0.2l-0.8,2.2l-1.7,1l-1,1.3l-0.5-0.4
				l-0.5,1.6c0,0-0.5,0.6-0.8,0.6c-0.4-2.5-0.2-35.5-1.6-42.5c-0.1-0.2,0.2-0.8,0.8-0.9C245.3,280.2,252.1,279.5,251.8,290.3z"/>
		</g>
		<g class="st6">
			<path class="st2" d="M259.4,282c2.5-1.1,5.7,1.6,5.9,2.8c0.1,0.4,0.1,1.3-0.6,1.4c-0.8,1.5-2.4,3.8-2.4,7.9c0,6.6,3.4,8.8,4,8.9
				c1.1,0.1,4.3-2.9,4.3-9.7c0-8.6-5.3-8.3-5.3-8.3l-0.2-0.1c0,0,0.6-0.2,0.5-0.4c-0.1-0.1-0.4-0.3-0.4-0.4c0.1-0.2,0.2-0.6,0.7-0.8
				c3-1.3,11.8,1.2,11.8,11.9c0,8.7-4.5,16-11.3,15.9c-7.7-0.1-12.1-10.1-12.1-15.2C254.4,287.6,258.7,282.3,259.4,282z
				 M259.3,322.6c4.9-1.6,11.6-3.3,17.8-2.4l0.5,0.3c0,0,0.5-2,0.6-2.4s-0.8-1.7-0.8-1.7l0.5-0.1l-0.8-0.9c0,0,0.4,0.1,0.3,0
				c-1.8-3.2-15.6-4.4-21.8-0.8C254,318.3,255.2,324,259.3,322.6z"/>
		</g>
	</g>
</g>
</svg>
